<svg width="1166" height="317" viewBox="0 0 1166 317" fill="none" xmlns="http://www.w3.org/2000/svg">
<path d="M65.3664 118.055V232.085H71.7457V212.149M65.3664 118.055H71.7457M65.3664 118.055H55V111.676M71.7457 118.055H203.319M71.7457 118.055V135.597M203.319 118.055H209.698M203.319 118.055V135.597M209.698 118.055V232.085H203.319V212.149M209.698 118.055H220.064V111.676M220.064 111.676H55M220.064 111.676L214.483 104.499C214.217 103.968 213.207 102.904 211.293 102.904C209.379 102.904 113.211 102.904 65.3664 102.904C64.0373 102.639 61.0603 102.585 59.7845 104.499C58.5086 106.413 56.0632 110.081 55 111.676M139.526 134.003H137.133M138.728 135.597C138.728 135.066 138.888 133.524 139.526 131.61C140.164 129.697 141.918 130.281 142.715 130.813C144.588 131.281 148.48 132.038 150.69 131.776M137.133 134.003H134.741V127.623C136.655 123.158 142.981 123.105 145.905 123.636L151.487 122.839V126.826C154.039 126.826 154.145 128.952 153.879 130.015C153.879 130.281 153.401 130.972 151.487 131.61C151.258 131.687 150.989 131.741 150.69 131.776M137.133 134.003C136.712 134.283 136.157 134.846 135.916 135.597M150.69 131.776V135.597M138.728 140.382V145.166M138.728 145.166C139.792 146.761 142.396 149.632 144.31 148.356C145.108 147.824 146.702 146.442 146.702 145.166M138.728 145.166C134.741 145.166 126.608 146.921 125.97 153.938V157.925L126.273 158.001M146.702 145.166V143.217M146.702 145.166C148.031 145.166 150.849 145.485 151.487 146.761M146.702 143.217C143.111 144.833 139.415 141.564 137.931 139.584C137.293 138.309 136.602 137.99 136.336 137.99C135.734 137.087 135.7 136.267 135.916 135.597M146.702 143.217C146.969 143.097 147.235 142.95 147.5 142.774C148.297 142.242 150.052 140.541 150.69 137.99V135.597M156.271 152.343L158.664 145.964H151.487L149.095 153.938H152.284C152.284 153.008 152.484 151.811 153.082 151.247M156.271 152.343C156.803 152.609 157.707 153.938 157.069 157.128M156.271 152.343C154.677 150.748 153.68 150.682 153.082 151.247M157.069 157.128C156.226 157.633 154.85 158.395 153.955 158.722M157.069 157.128C158.983 159.041 159.461 164.836 159.461 167.494C158.823 169.408 157.069 168.823 156.271 168.291C153.72 166.378 153.664 161.115 153.955 158.722M153.082 158.722C153.082 158.956 153.438 158.912 153.955 158.722M153.082 158.722V179.455C152.818 179.536 152.552 179.613 152.284 179.685M153.082 158.722C153.082 158.604 153.082 158.35 153.082 158.001M153.082 151.247C153.082 153.061 153.082 156.46 153.082 158.001M132.349 159.52L134.741 154.735L133.944 159.52H132.349ZM132.349 159.52L126.273 158.001M126.273 158.001L125.97 165.899C125.97 167.76 126.927 171.003 130.754 169.089M130.754 169.089L144.31 159.52C145.908 159.374 148.046 158.912 148.928 158.001M130.754 169.089V178.658C130.998 178.739 131.264 178.823 131.552 178.908M129.957 163.507L141.918 156.33C144.47 150.626 147.766 151.295 149.095 152.343L147.5 154.735C149.525 156.182 149.659 157.245 148.928 158.001M131.552 178.908L133.146 195.403C133.336 196.351 133.58 198.463 133.472 200.985M131.552 178.908C135.814 180.172 144.668 181.74 152.284 179.685M138.728 224.908L133.521 224.257M138.728 224.908L142.715 227.3C143.991 227.938 143.779 229.692 143.513 230.489H132.349C131.411 227.3 132.74 225.005 133.521 224.257M138.728 224.908L140.855 212.149M141.918 205.77C142.184 204.441 142.715 201.145 142.715 198.593L144.31 185.834L145.108 198.593C145.108 199.922 145.108 202.899 145.108 204.175L145.171 205.77M141.918 205.77L140.855 212.149M141.918 205.77H145.171M151.487 224.11H146.702M151.487 224.11L157.069 227.3C158.983 227.938 158.929 229.692 158.664 230.489H145.905C145.267 228.576 146.171 225.439 146.702 224.11M151.487 224.11L153.047 212.149M153.879 205.77L153.047 212.149M153.879 205.77H192.155M153.879 205.77C154.039 204.81 154.238 202.983 154.231 200.985M152.284 179.685L153.879 196.998C154.133 198.268 154.227 199.664 154.231 200.985M133.521 224.257L132.349 224.11L132.827 212.149M146.702 224.11H145.905L145.427 212.149M148.928 158.001H153.082M71.7457 135.597H135.916M71.7457 135.597V212.149M150.69 135.597H203.319M203.319 135.597V212.149M71.7457 212.149H82.9094M132.827 212.149L133.083 205.77M132.827 212.149H82.9094M140.855 212.149H145.427M145.427 212.149L145.171 205.77M153.047 212.149H192.155M203.319 212.149H192.155M192.155 212.149V205.77M192.155 205.77H196.939V200.985H154.231M133.083 205.77L133.146 204.175C133.329 203.078 133.429 201.998 133.472 200.985M133.083 205.77H82.9094M133.472 200.985H78.9224V205.77H82.9094M82.9094 205.77V212.149M86.0991 185.834L122.78 153.938M100.453 185.834L117.198 170.684M89.2887 171.481L111.616 151.546M167.435 161.912L180.991 150.748M160.258 181.05L194.175 151.247M169.03 184.24L189.763 166.696M243.987 224.908H240.797C236.97 224.908 235.481 229.693 235.215 232.085H257.543C258.181 226.982 254.619 225.174 252.758 224.908H249.569M243.987 224.908V154.735M243.987 224.908H249.569M243.987 154.735H249.569M243.987 154.735H233.62C232.026 154.735 228.836 153.619 228.836 149.153V118.055C228.836 116.726 229.474 114.227 232.026 114.865H261.53C262.327 114.865 263.922 115.662 263.922 118.852V151.247C264.188 152.675 263.922 155.373 260.732 154.735H249.569M249.569 154.735V224.908M236.013 136.395V145.166H238.405M236.013 136.395H256.745M236.013 136.395V130.813M256.745 136.395V145.166H254.353M256.745 136.395V130.813M236.013 126.826V126.028C236.013 124.699 236.651 122.041 239.202 122.041H253.556C254.619 122.041 256.745 122.839 256.745 126.028V126.826M236.013 126.826H256.745M236.013 126.826V130.813M256.745 126.826V130.813M238.405 145.166V148.356M238.405 145.166H254.353M254.353 145.166V148.356M232.823 135.597V130.813H236.013M259.935 135.597V130.813H256.745" stroke="#001D3D" stroke-width="2" stroke-linecap="round"/>
<circle cx="240.001" cy="141.179" r="1.59483" stroke="#001D3D" stroke-width="2" stroke-linecap="round"/>
<circle cx="252.759" cy="141.179" r="1.59483" stroke="#001D3D" stroke-width="2" stroke-linecap="round"/>
<circle cx="143.512" cy="135.596" r="0.797413" fill="#003566"/>
<circle cx="148.297" cy="135.596" r="0.797413" fill="#003566"/>
<mask id="path-6-inside-1_326_221" fill="white">
<ellipse cx="145.903" cy="140.381" rx="1.59483" ry="0.797413"/>
</mask>
<ellipse cx="145.903" cy="140.381" rx="1.59483" ry="0.797413" fill="#003566"/>
<path d="M147.498 140.381H145.498C145.498 139.918 145.693 139.581 145.846 139.4C145.988 139.233 146.114 139.168 146.137 139.156C146.18 139.135 146.101 139.179 145.903 139.179V141.179V143.179C146.587 143.179 147.305 143.045 147.926 142.734C148.427 142.483 149.498 141.767 149.498 140.381H147.498ZM145.903 141.179V139.179C145.706 139.179 145.627 139.135 145.67 139.156C145.693 139.168 145.819 139.233 145.961 139.4C146.114 139.581 146.309 139.918 146.309 140.381H144.309H142.309C142.309 141.767 143.38 142.483 143.881 142.734C144.502 143.045 145.22 143.179 145.903 143.179V141.179ZM144.309 140.381H146.309C146.309 140.845 146.114 141.182 145.961 141.363C145.819 141.53 145.693 141.595 145.67 141.606C145.627 141.628 145.706 141.584 145.903 141.584V139.584V137.584C145.22 137.584 144.502 137.718 143.881 138.029C143.38 138.279 142.309 138.996 142.309 140.381H144.309ZM145.903 139.584V141.584C146.101 141.584 146.18 141.628 146.137 141.606C146.114 141.595 145.988 141.53 145.846 141.363C145.693 141.182 145.498 140.845 145.498 140.381H147.498H149.498C149.498 138.996 148.427 138.279 147.926 138.029C147.305 137.718 146.587 137.584 145.903 137.584V139.584Z" fill="#001D3D" mask="url(#path-6-inside-1_326_221)"/>
<path d="M522.7 225.585H517V231.285H528.4M522.7 225.585C523.175 227.485 524.98 231.285 528.4 231.285M522.7 225.585C522.7 222.165 524.125 220.36 524.837 219.885M528.4 231.285H534.812M534.812 231.285H549.062M534.812 231.285C536.051 230.184 537.72 228.062 538.24 225.585M536.95 219.885H524.837M536.95 219.885C540.94 218.744 540.987 215.134 540.512 213.473C543.362 203.783 537.9 202.311 534.812 202.786C531.04 198.071 528.539 198.051 526.975 199.738M536.95 219.885C538.388 221.803 538.617 223.787 538.24 225.585M524.837 219.885C522.7 219.173 518.995 216.893 521.275 213.473C519.85 210.623 518.567 205.065 524.837 205.635C525.051 203.612 525.703 201.111 526.975 199.738M549.062 231.285H555.475M549.062 231.285C547.637 230.395 545.542 228.274 545.79 225.585M546.925 222.737H556.9M546.925 222.737C546.214 223.733 545.872 224.691 545.79 225.585M546.925 222.737C545.262 221.787 542.507 219.46 544.787 217.75C543.837 216.087 542.935 212.477 546.925 211.337C546.925 207.775 548.635 202.36 555.475 209.2C557.85 209.438 561.887 211.481 559.037 217.75C559.512 218.937 559.75 221.597 556.9 222.737M556.9 222.737C557.274 223.391 557.663 224.413 557.788 225.585M555.475 231.285C557.549 229.556 557.981 227.392 557.788 225.585M555.475 231.285H603.925M538.24 225.585H545.79M638.837 225.585V227.012M638.837 225.585V209.912M638.837 225.585H664.487M638.837 227.012C640.025 227.486 642.4 229.004 642.4 231.285M638.837 227.012H634.562M642.4 231.285H631M642.4 231.285H650.95M631 231.285C630.762 230.336 631.142 228.154 634.562 227.012M631 231.285H603.925M634.562 227.012V225.585M634.562 225.585V209.912M634.562 225.585H600.362M557.788 225.585H571.15M634.562 209.912H638.837M634.562 209.912H621.025V206.35H634.562M638.837 209.912H652.375V206.35H643.469M634.562 206.35V202.075H643.469V206.35M634.562 206.35H643.469M603.925 231.285L607.487 217.75M607.487 217.75H618.175M607.487 217.75L606.894 214.9M618.175 217.75L621.025 232M618.175 217.75C619.125 217.512 620.74 216.61 619.6 214.9H606.894M603.925 200.65L606.894 214.9M650.95 231.285L653.8 217.75M650.95 231.285H666.625M653.8 217.75H664.487M653.8 217.75C652.137 217.512 649.525 216.467 652.375 214.187H665.2M665.2 217.75L666.625 231.285M665.2 217.75H664.487M665.2 217.75L665.794 214.187M666.625 231.285H672.325V225.585H664.487M664.487 225.585V217.75M668.05 200.65L665.794 214.187M665.794 214.187H665.2M665.2 165.025V214.187M665.2 165.025C669.76 167.305 671.85 162.175 672.325 159.325M665.2 165.025C663.775 164.55 660.925 162.745 660.925 159.325M526.975 165.025V199.738M526.975 165.025C530.965 164.455 532.2 160.987 532.319 159.325M526.975 165.025C525.075 165.262 521.132 164.455 520.562 159.325M571.15 225.585H600.362M571.15 225.585V197.087M600.362 225.585V197.087M571.15 197.087V172.862H600.362V197.087M571.15 197.087H600.362M575.425 199.738V208.487M618.887 186.4L627.437 177.85M620.312 191.387L631.712 180.7M635.275 191.387L646.675 179.987M640.975 192.812L648.812 184.975M541.937 185.687L549.775 177.85M544.075 189.962L555.475 179.275M520.562 159.325H532.319M520.562 159.325L527.687 144.362M672.325 159.325H660.925M672.325 159.325L665.2 144.362M660.925 159.325H648.812M660.925 159.325C660.925 159.459 660.92 159.601 660.909 159.748M648.812 159.325C648.242 162.745 651.425 165.025 653.087 165.737C659.003 166.275 660.733 162.204 660.909 159.748M648.812 159.325C648.337 162.175 645.962 167.305 640.262 165.025C639.075 164.075 636.842 161.605 637.412 159.325M648.812 159.325H637.412M648.812 159.325L643.469 144.362M637.412 159.325C637.175 162.412 635.132 167.875 628.862 165.025C627.675 164.55 625.442 162.745 626.012 159.325M637.412 159.325H626.012M637.412 159.325L633.137 144.362M626.012 159.325C625.537 161.937 623.162 166.877 617.462 165.737C616.037 164.787 613.33 162.175 613.9 159.325M626.012 159.325H613.9M626.012 159.325L622.45 144.362M613.9 159.325C613.662 162.175 611.62 167.447 605.35 165.737C603.925 165.025 601.36 162.745 602.5 159.325M613.9 159.325H602.5M613.9 159.325L611.762 144.362M602.5 159.325C601.787 162.65 599.08 168.445 593.95 165.025C592.762 164.075 590.387 161.605 590.387 159.325M602.5 159.325H590.387M602.5 159.325L601.787 144.362M590.387 159.325C589.675 162.412 586.967 167.875 581.837 165.025C580.887 164.787 578.987 163.315 578.987 159.325M590.387 159.325H578.987M590.387 159.325V144.362M578.987 159.325C578.75 162.175 576.707 167.305 570.437 165.025C569.25 164.312 567.017 162.175 567.587 159.325M578.987 159.325H567.587M578.987 159.325L580.412 144.362M567.587 159.325C566.4 162.412 562.742 167.875 557.612 165.025C556.662 164.075 554.905 161.605 555.475 159.325M567.587 159.325H555.475M567.587 159.325L570.437 144.362M555.475 159.325C554.762 162.175 552.055 167.305 546.925 165.025C545.737 164.55 543.505 162.745 544.075 159.325M555.475 159.325H544.075M555.475 159.325L559.037 144.362M544.075 159.325C543.125 162.175 539.942 167.305 534.812 165.025C533.862 164.312 532.034 162.175 532.319 159.325M544.075 159.325H532.319M544.075 159.325L549.062 145.075M532.319 159.325L538.375 144.362M527.687 144.362H538.375M527.687 144.362V130.112H536.95M665.2 144.362H654.334M665.2 144.362V130.112H654.512M538.375 144.362H559.037M559.037 144.362H570.437M570.437 144.362H580.412M580.412 144.362H590.387M590.387 144.362H601.787M601.787 144.362H611.762M611.762 144.362H622.45M622.45 144.362H633.137M633.137 144.362H643.469M643.469 144.362H654.334M660.909 159.748L654.334 144.362M560.462 130.112C560.225 127.737 561.317 122.56 567.587 120.85H624.587C626.962 121.325 631.712 123.842 631.712 130.112M560.462 130.112C560.462 135.812 564.737 138.187 566.875 138.662H623.875C630.145 137.522 631.712 132.487 631.712 130.112M560.462 130.112H536.95M631.712 130.112H654.512M585.4 127.262C584.092 125.6 580.801 123.272 578.095 127.262V132.25C579.342 133.912 582.55 136.097 585.4 131.537M587.537 135.1L588.62 131.852M596.087 135.1L594.572 131.852M588.62 131.852L591.1 124.412L594.572 131.852M588.62 131.852H594.572M598.937 135.1V130.112M604.637 125.125H598.937V130.112M598.937 130.112H603.925M613.187 125.125H607.487V129.756M607.487 129.756V134.387H613.187M607.487 129.756H612.956M654.512 130.112V118.712C654.275 117.762 653.372 116.005 651.662 116.575H539.8C538.85 116.575 536.95 117.145 536.95 119.425C536.95 121.705 536.95 127.5 536.95 130.112M583.975 107.312H606.775M587.537 92.3496L589.675 98.7621M607.487 90.8639C607.525 90.0994 607.521 89.3956 607.487 88.7871H583.262C582.692 98.4771 588.25 102.8 591.1 103.75H599.65C602.472 103.044 604.34 101.101 605.544 98.7621M607.487 90.8639C609.15 90.8841 612.475 91.7796 612.475 95.1996C612.475 98.6196 607.855 98.9996 605.544 98.7621M607.487 90.8639C607.369 93.2544 606.843 96.2389 605.544 98.7621M588.962 78.8121V80.9496C589.2 81.4246 589.817 82.3746 590.387 82.3746C590.957 82.3746 590.625 83.7996 590.387 84.5121L589.675 85.9371M594.662 78.0996V80.9496C594.662 81.1871 594.805 81.6621 595.375 81.6621C595.945 81.6621 596.087 83.0871 596.087 83.7996L595.375 85.9371M600.362 78.8121V81.6621C600.362 81.8996 600.505 82.3746 601.075 82.3746C601.645 82.3746 601.312 83.7996 601.075 84.5121L600.362 85.9371M732.887 226.3H730.75C729.325 226.537 726.617 228.01 727.187 232H745C744.762 230.1 743.575 226.3 740.725 226.3H738.587M732.887 226.3V196.375C733.438 195.136 734.499 193.61 735.737 193.544M732.887 226.3H738.587M738.587 226.3V196.375C737.629 194.217 736.636 193.496 735.737 193.544M735.737 193.544V126.55C735.737 122.512 732.745 114.295 720.775 113.725M720.775 113.725V116.575L716.5 116.427M720.775 113.725V111.587C717.212 110.4 709.09 108.31 705.1 109.45C701.11 110.59 700.112 114.2 700.112 115.862L702.962 115.96M702.962 115.96C703.675 117.828 706.24 121.277 710.8 120.137C715.36 118.997 716.5 117.189 716.5 116.427M702.962 115.96L716.5 116.427M579.7 181.412V189.25H591.812V181.412H579.7ZM611.762 199.738V172.15H655.225V199.738H611.762ZM536.95 199.738V173.575H560.462V199.738H536.95Z" stroke="#001D3D" stroke-width="2" stroke-linecap="round"/>
<circle cx="595.375" cy="93.7754" r="20.375" stroke="#001D3D" stroke-width="2" stroke-linecap="round"/>
<path d="M974.622 223.484V227.116M974.622 223.484L975.681 219.853M974.622 223.484H965.905M974.622 227.116H976.801L981.886 208.23C982.467 205.325 985.033 205.082 986.244 205.325V216.22H996.413V218.399H989.149M974.622 227.116H963V223.484H965.905M1021.11 176.27C1017.04 175.108 1016.51 178.207 1016.75 179.902V187.165H1014.57M1021.11 176.27V174.818H1028.37C1028.62 176.271 1028.66 179.176 1026.92 179.176M1021.11 176.27V179.176M1021.11 176.27H1014.57V187.165M1026.92 179.176H1021.11M1026.92 179.176V186.44M1021.11 179.176C1019.95 178.596 1019.66 180.387 1019.66 181.355V186.44M1014.57 187.165H1008.76M983.338 220.579V205.325M1009.49 231.475C995.541 234.38 988.181 225.905 986.244 221.305V218.399H989.149M989.149 218.399C990.844 222.031 996.268 229.005 1004.4 227.843M989.149 215.495V205.325H997.866M999.318 203.145H989.149V194.43M989.149 194.43V192.251C989.149 191.524 989.585 190.072 991.328 190.072L1016.75 190.797V195.156H1011.67L1008.76 194.43H1002.22M989.149 194.43H1002.22M1002.22 190.797V194.43M1019.66 195.883V186.44M1026.92 200.967V186.44M1019.66 186.44H1026.92M986.244 194.43V203.145C982.757 201.983 980.433 204.598 979.706 206.051L975.681 219.853M986.244 194.43V190.797C986.244 189.344 987.261 186.584 991.328 187.165H995.271M986.244 194.43C985.503 194.245 984.438 194.074 983.338 194.063M971.716 219.853C973.653 212.831 977.818 198.207 978.98 195.883C979.698 194.447 981.562 194.046 983.338 194.063M971.716 219.853H975.681M971.716 219.853C969.537 220.336 965.324 221.74 965.905 223.484M992.781 179.902L992.055 182.808M992.781 179.902L998.592 181.355M992.781 179.902L990.602 177.723L990.36 178.449M992.055 182.808C988.861 184.48 987.819 181.083 987.697 179.175M992.055 182.808C992.877 183.151 994.002 183.602 995.271 184.085M1005.13 187.165H1008.76M1005.13 187.165C1002.63 186.748 998.487 185.311 995.271 184.085M1005.13 187.165H995.271M1008.76 187.165C1009.73 186.681 1011.67 184.55 1011.67 179.902M1011.67 179.902H1013.12V172.639M1011.67 179.902H1006.58M1013.12 172.639C1011.67 171.67 1008.18 170.315 1005.86 172.639M1013.12 172.639C1014.33 171.428 1016.17 167.989 1013.85 163.922C1012.36 161.316 1011.58 159.365 1011.22 158.109M1005.86 172.639C1003.53 174.963 1002.47 174.575 1002.22 174.091C1001.75 174.091 1001.02 174.227 1000.33 174.633M1005.86 172.639V167.552M998.592 181.355C998.35 180.871 998.011 179.321 998.592 176.996C998.891 175.799 999.589 175.064 1000.33 174.633M998.592 181.355C1000.29 182.082 1004.26 183.39 1006.58 182.808V179.902M1006.58 179.902V175.543M987.697 179.175L989.876 179.902L990.36 178.449M987.697 179.175L984.791 175.543L986.244 173.364L990.36 178.449M995.271 184.085V187.165M995.947 160.289C996.268 160.376 996.661 160.384 997.139 160.289L997.866 157.383C999.076 159.32 1002.37 162.613 1005.86 160.289C1007.55 160.531 1009.92 161.741 1005.86 164.647V167.552M995.947 160.289C996.276 161.477 996.737 164.223 995.947 165.703L997.139 165.843M995.947 160.289C995.02 160.035 994.698 159.116 994.667 158.109M1005.86 167.552C1005.86 167.31 1005.42 167.262 1003.68 169.005C1001.93 170.748 1000.53 169.247 1000.04 168.279C997.72 167.698 998.592 166.584 999.318 166.1L997.139 165.843M1000.33 174.633C999.022 175.007 996.558 173.772 997.139 165.843M983.338 194.063V158.109M983.338 158.109H994.667M983.338 158.109H972.443M994.667 158.109C994.643 157.35 994.786 156.541 994.96 155.932C995.654 155.007 996.943 153.674 998.608 152.596M972.443 158.109L978.98 152.596M972.443 158.109L968.085 153.751L1032.73 100L1053.46 117.433M1093.02 158.109L1086.48 152.596M1093.02 158.109L1096.65 153.751L1069.78 131.151M1093.02 158.109H1082.65M1011.22 158.109C1011.02 157.405 1010.94 156.919 1010.94 156.658C1010.94 155.626 1010.51 153.91 1009.12 152.596M1011.22 158.109H1082.65M978.98 152.596L1032.73 107.264L1086.48 152.596M978.98 152.596H998.608M998.608 152.596C1000.43 151.417 1002.7 150.543 1005.13 150.847C1006.95 151.074 1008.23 151.753 1009.12 152.596M1009.12 152.596H1086.48M1032.73 122.199V136.318M1026.5 129.055H1040.5M1053.46 117.433V110.896H1069.78V131.151M1053.46 117.433L1069.78 131.151M1067.6 231.475H1044.35V184.085M1067.6 231.475V213.313M1067.6 231.475H1074.13V224.935M1049.44 195.883V203.145M1044.35 184.085V172.639H1067.6V184.085M1044.35 184.085H1067.6M1067.6 184.085V213.313M1067.6 213.313C1068.57 210.165 1071.23 205.467 1074.13 211.861V216.945M1084.3 211.861V231.475M1084.3 211.861C1085.27 209.681 1087.94 206.63 1090.84 211.861V216.945M1084.3 211.861C1083.74 210.844 1083.18 210.14 1082.65 209.682M1084.3 231.475H1077.77V224.935M1084.3 231.475H1090.84V224.21M1074.13 224.935H1077.77M1074.13 224.935V216.945M1077.77 224.935V216.945M1074.13 216.945H1077.77M1077.77 216.945V211.861C1078.55 210.105 1080.43 207.783 1082.65 209.682M1090.84 216.945H1093.02M1090.84 216.945V224.21M1093.02 216.945V211.861C1093.99 209.681 1096.51 206.63 1098.83 211.861V218.398M1093.02 216.945V224.21M1090.84 224.21H1093.02M1093.02 224.21V231.475H1098.83V224.935M1098.83 224.935H1103.19M1098.83 224.935V218.398M1103.19 224.935V231.475H1109V211.861C1106.68 206.63 1104.16 209.681 1103.19 211.861V218.398M1103.19 224.935V218.398M1103.19 218.398H1098.83M1082.65 209.682V158.109" stroke="#001D3D" stroke-width="2" stroke-linecap="round"/>
<circle cx="1033.01" cy="129.056" r="7.71642" stroke="#001D3D" stroke-width="2" stroke-linecap="round"/>
<circle cx="982.612" cy="226.387" r="4.81095" stroke="#001D3D" stroke-width="2" stroke-linecap="round"/>
<circle cx="1014.57" cy="213.314" r="13.5274" stroke="#001D3D" stroke-width="2" stroke-linecap="round"/>
<circle cx="1014.57" cy="213.313" r="17.8856" stroke="#001D3D" stroke-width="2" stroke-linecap="round"/>
<circle cx="1015.3" cy="212.589" r="1.1791" fill="#003566" stroke="#001D3D" stroke-width="2" stroke-linecap="round"/>
<circle cx="999.5" cy="162.699" r="0.5" fill="#001D3D"/>
<line y1="232" x2="1166" y2="232" stroke="#001D3D" stroke-width="2"/>
<line y1="316" x2="1166" y2="316" stroke="#001D3D" stroke-width="2"/>
<line y1="275" x2="58" y2="275" stroke="#001D3D" stroke-width="2"/>
<line x1="92" y1="275" x2="150" y2="275" stroke="#001D3D" stroke-width="2"/>
<line x1="185" y1="275" x2="242" y2="275" stroke="#001D3D" stroke-width="2"/>
<line x1="277" y1="275" x2="335" y2="275" stroke="#001D3D" stroke-width="2"/>
<line x1="369" y1="275" x2="427" y2="275" stroke="#001D3D" stroke-width="2"/>
<line x1="462" y1="275" x2="520" y2="275" stroke="#001D3D" stroke-width="2"/>
<line x1="554" y1="275" x2="612" y2="275" stroke="#001D3D" stroke-width="2"/>
<line x1="646" y1="275" x2="704" y2="275" stroke="#001D3D" stroke-width="2"/>
<line x1="739" y1="275" x2="797" y2="275" stroke="#001D3D" stroke-width="2"/>
<line x1="831" y1="275" x2="889" y2="275" stroke="#001D3D" stroke-width="2"/>
<line x1="924" y1="275" x2="981" y2="275" stroke="#001D3D" stroke-width="2"/>
<line x1="1016" y1="275" x2="1074" y2="275" stroke="#001D3D" stroke-width="2"/>
<line x1="1108" y1="275" x2="1166" y2="275" stroke="#001D3D" stroke-width="2"/>
<path d="M597.001 29.0006C598.33 29.0006 599.468 28.5274 600.415 27.5809C601.361 26.6343 601.835 25.4965 601.835 24.1673C601.835 22.8381 601.361 21.7003 600.415 20.7538C599.468 19.8072 598.33 19.334 597.001 19.334C595.672 19.334 594.534 19.8072 593.588 20.7538C592.641 21.7003 592.168 22.8381 592.168 24.1673C592.168 25.4965 592.641 26.6343 593.588 27.5809C594.534 28.5274 595.672 29.0006 597.001 29.0006ZM597.001 53.1673C590.517 47.6493 585.673 42.5239 582.471 37.7913C579.269 33.0586 577.668 28.6784 577.668 24.6506C577.668 18.609 579.611 13.7958 583.498 10.2111C587.385 6.62635 591.886 4.83398 597.001 4.83398C602.117 4.83398 606.618 6.62635 610.504 10.2111C614.391 13.7958 616.335 18.609 616.335 24.6506C616.335 28.6784 614.734 33.0586 611.532 37.7913C608.329 42.5239 603.486 47.6493 597.001 53.1673Z" fill="#001D3D"/>
</svg>
