<svg width="762" height="317" viewBox="0 0 762 317" fill="none" xmlns="http://www.w3.org/2000/svg">
<path d="M25.6304 136.726V231.66H30.9414V215.062M25.6304 136.726H30.9414M25.6304 136.726H17V131.415M30.9414 136.726H140.481M30.9414 136.726V151.33M140.481 136.726H145.792M140.481 136.726V151.33M145.792 136.726V231.66H140.481V215.062M145.792 136.726H154.422V131.415M154.422 131.415H17M154.422 131.415L149.775 125.44C149.554 124.997 148.713 124.112 147.119 124.112C145.526 124.112 65.4628 124.112 25.6304 124.112C24.5239 123.891 22.0454 123.847 20.9832 125.44C19.921 127.033 17.8852 130.087 17 131.415M87.3707 150.003H85.3791M86.7068 151.33C86.7068 150.888 86.8396 149.604 87.3707 148.011C87.9018 146.418 89.3623 146.905 90.0262 147.347C91.585 147.737 94.8252 148.367 96.6649 148.149M85.3791 150.003H83.3875V144.692C84.9807 140.974 90.2475 140.93 92.6817 141.372L97.3288 140.708V144.028C99.4532 144.028 99.5417 145.798 99.3204 146.683C99.3204 146.905 98.9221 147.48 97.3288 148.011C97.1384 148.074 96.9146 148.12 96.6649 148.149M85.3791 150.003C85.0283 150.236 84.5662 150.705 84.3652 151.33M96.6649 148.149V151.33M86.7068 155.314V159.297M86.7068 159.297C87.592 160.625 89.7606 163.015 91.3539 161.952C92.0178 161.51 93.3456 160.359 93.3456 159.297M86.7068 159.297C83.3875 159.297 76.6159 160.757 76.0848 166.599V169.919L76.3374 169.982M93.3456 159.297V157.674M93.3456 159.297C94.452 159.297 96.7977 159.562 97.3288 160.625M93.3456 157.674C90.3557 159.019 87.2789 156.298 86.0429 154.65C85.5118 153.588 84.9365 153.322 84.7152 153.322C84.2143 152.571 84.1858 151.888 84.3652 151.33M93.3456 157.674C93.5676 157.574 93.7892 157.452 94.0094 157.305C94.6733 156.863 96.1338 155.446 96.6649 153.322V151.33M101.312 165.272L103.304 159.961H97.3288L95.3372 166.599H97.9927C97.9927 165.825 98.1587 164.829 98.6566 164.359M101.312 165.272C101.755 165.493 102.507 166.599 101.976 169.255M101.312 165.272C99.9843 163.944 99.1545 163.889 98.6566 164.359M101.976 169.255C101.275 169.676 100.129 170.31 99.3836 170.583M101.976 169.255C103.569 170.848 103.968 175.672 103.968 177.885C103.436 179.479 101.976 178.992 101.312 178.549C99.1877 176.956 99.1412 172.574 99.3836 170.583M98.6566 170.583C98.6566 170.777 98.9532 170.74 99.3836 170.583M98.6566 170.583V187.843C98.4367 187.911 98.2153 187.975 97.9927 188.035M98.6566 170.583C98.6566 170.484 98.6566 170.273 98.6566 169.982M98.6566 164.359C98.6566 165.869 98.6566 168.699 98.6566 169.982M81.3958 171.247L83.3875 167.263L82.7236 171.247H81.3958ZM81.3958 171.247L76.3374 169.982M76.3374 169.982L76.0848 176.558C76.0848 178.107 76.8815 180.806 80.0681 179.213M80.0681 179.213L91.3539 171.247C92.6844 171.126 94.4645 170.74 95.1981 169.982M80.0681 179.213V187.18C80.271 187.247 80.4928 187.317 80.732 187.388M79.4042 174.566L89.3623 168.591C91.4867 163.842 94.2307 164.4 95.3372 165.272L94.0094 167.263C95.6951 168.467 95.8067 169.353 95.1981 169.982M80.732 187.388L82.0597 201.121C82.2176 201.91 82.4205 203.668 82.331 205.768M80.732 187.388C84.2802 188.441 91.652 189.746 97.9927 188.035M86.7068 225.684L82.3717 225.142M86.7068 225.684L90.0262 227.676C91.0884 228.207 90.9114 229.668 90.6901 230.331H81.3958C80.6151 227.676 81.7211 225.766 82.3717 225.142M86.7068 225.684L88.4772 215.062M89.3623 209.751C89.5836 208.645 90.0262 205.901 90.0262 203.776L91.3539 193.154L92.0178 203.776C92.0178 204.883 92.0178 207.361 92.0178 208.424L92.0709 209.751M89.3623 209.751L88.4772 215.062M89.3623 209.751H92.0709M97.3288 225.02H93.3456M97.3288 225.02L101.976 227.676C103.569 228.207 103.525 229.668 103.304 230.331H92.6817C92.1506 228.738 92.903 226.127 93.3456 225.02M97.3288 225.02L98.6277 215.062M99.3204 209.751L98.6277 215.062M99.3204 209.751H131.186M99.3204 209.751C99.4536 208.952 99.6189 207.431 99.6136 205.768M97.9927 188.035L99.3204 202.449C99.5319 203.506 99.61 204.668 99.6136 205.768M82.3717 225.142L81.3958 225.02L81.7942 215.062M93.3456 225.02H92.6817L92.2834 215.062M95.1981 169.982H98.6566M30.9414 151.33H84.3652M30.9414 151.33V215.062M96.6649 151.33H140.481M140.481 151.33V215.062M30.9414 215.062H40.2356M81.7942 215.062L82.0066 209.751M81.7942 215.062H40.2356M88.4772 215.062H92.2834M92.2834 215.062L92.0709 209.751M98.6277 215.062H131.186M140.481 215.062H131.186M131.186 215.062V209.751M131.186 209.751H135.17V205.768H99.6136M82.0066 209.751L82.0597 208.424C82.2119 207.51 82.2951 206.612 82.331 205.768M82.0066 209.751H40.2356M82.331 205.768H36.9162V209.751H40.2356M40.2356 209.751V215.062M42.8911 193.154L73.4293 166.599M54.8408 193.154L68.7822 180.541M45.5466 181.205L64.1351 164.608M110.606 173.238L121.892 163.944M104.631 189.171L132.869 164.359M111.934 191.827L129.195 177.221M174.338 225.684H171.683C168.496 225.684 167.257 229.668 167.036 231.66H185.624C186.155 227.412 183.19 225.906 181.641 225.684H178.985M174.338 225.684V167.263M174.338 225.684H178.985M174.338 167.263H178.985M174.338 167.263H165.708C164.38 167.263 161.725 166.334 161.725 162.616V136.726C161.725 135.619 162.256 133.539 164.38 134.07H188.943C189.607 134.07 190.935 134.734 190.935 137.389V164.359C191.156 165.548 190.935 167.794 188.28 167.263H178.985M178.985 167.263V225.684M167.7 151.994V159.297H169.691M167.7 151.994H184.96M167.7 151.994V147.347M184.96 151.994V159.297H182.969M184.96 151.994V147.347M167.7 144.028V143.364C167.7 142.257 168.231 140.044 170.355 140.044H182.305C183.19 140.044 184.96 140.708 184.96 143.364V144.028M167.7 144.028H184.96M167.7 144.028V147.347M184.96 144.028V147.347M169.691 159.297V161.952M169.691 159.297H182.969M182.969 159.297V161.952M165.044 151.33V147.347H167.7M187.616 151.33V147.347H184.96" stroke="#001D3D" stroke-width="2" stroke-linecap="round"/>
<circle cx="171.019" cy="155.976" r="1.32775" stroke="#001D3D" stroke-width="2" stroke-linecap="round"/>
<circle cx="181.642" cy="155.976" r="1.32775" stroke="#001D3D" stroke-width="2" stroke-linecap="round"/>
<circle cx="90.6893" cy="151.328" r="0.663875" fill="#003566"/>
<circle cx="94.6736" cy="151.328" r="0.663875" fill="#003566"/>
<mask id="path-6-inside-1_326_222" fill="white">
<ellipse cx="92.6813" cy="155.312" rx="1.32775" ry="0.663875"/>
</mask>
<ellipse cx="92.6813" cy="155.312" rx="1.32775" ry="0.663875" fill="#003566"/>
<path d="M94.009 155.312H92.009C92.009 154.83 92.2115 154.475 92.3777 154.279C92.5329 154.096 92.6792 154.016 92.7257 153.993C92.8177 153.947 92.8047 153.976 92.6813 153.976V155.976V157.976C93.2911 157.976 93.942 157.857 94.5146 157.571C94.9674 157.344 96.009 156.661 96.009 155.312H94.009ZM92.6813 155.976V153.976C92.5578 153.976 92.5449 153.947 92.6368 153.993C92.6834 154.016 92.8296 154.096 92.9848 154.279C93.151 154.475 93.3535 154.83 93.3535 155.312H91.3535H89.3535C89.3535 156.661 90.3951 157.344 90.848 157.571C91.4205 157.857 92.0715 157.976 92.6813 157.976V155.976ZM91.3535 155.312H93.3535C93.3535 155.794 93.151 156.149 92.9848 156.346C92.8296 156.529 92.6834 156.608 92.6368 156.632C92.5449 156.678 92.5578 156.648 92.6813 156.648V154.648V152.648C92.0715 152.648 91.4205 152.768 90.848 153.054C90.3951 153.28 89.3535 153.963 89.3535 155.312H91.3535ZM92.6813 154.648V156.648C92.8047 156.648 92.8177 156.678 92.7257 156.632C92.6792 156.608 92.5329 156.529 92.3777 156.346C92.2115 156.149 92.009 155.794 92.009 155.312H94.009H96.009C96.009 153.963 94.9674 153.28 94.5146 153.054C93.942 152.768 93.2911 152.648 92.6813 152.648V154.648Z" fill="#001D3D" mask="url(#path-6-inside-1_326_222)"/>
<path d="M307.35 225.978H302V231.328H312.7M307.35 225.978C307.796 227.762 309.49 231.328 312.7 231.328M307.35 225.978C307.35 222.768 308.687 221.074 309.356 220.628M312.7 231.328H318.719M318.719 231.328H332.094M318.719 231.328C319.881 230.295 321.448 228.303 321.936 225.978M320.725 220.628H309.356M320.725 220.628C324.47 219.557 324.515 216.169 324.069 214.609C326.744 205.514 321.617 204.133 318.719 204.579C315.178 200.154 312.831 200.135 311.362 201.719M320.725 220.628C322.075 222.428 322.289 224.291 321.936 225.978M309.356 220.628C307.35 219.959 303.872 217.819 306.012 214.609C304.675 211.934 303.471 206.718 309.356 207.253C309.556 205.354 310.169 203.007 311.362 201.719M332.094 231.328H338.112M332.094 231.328C330.756 230.492 328.79 228.502 329.022 225.978M330.087 223.305H339.45M330.087 223.305C329.42 224.24 329.099 225.139 329.022 225.978M330.087 223.305C328.527 222.413 325.941 220.229 328.081 218.624C327.19 217.063 326.342 213.675 330.087 212.605C330.087 209.261 331.692 204.179 338.112 210.599C340.342 210.822 344.131 212.74 341.456 218.624C341.902 219.738 342.125 222.235 339.45 223.305M339.45 223.305C339.801 223.919 340.166 224.878 340.283 225.978M338.112 231.328C340.059 229.705 340.465 227.674 340.283 225.978M338.112 231.328H383.587M321.936 225.978H329.022M416.356 225.978V227.318M416.356 225.978V211.268M416.356 225.978H440.431M416.356 227.318C417.471 227.762 419.7 229.187 419.7 231.328M416.356 227.318H412.344M419.7 231.328H409M419.7 231.328H427.725M409 231.328C408.777 230.438 409.134 228.389 412.344 227.318M409 231.328H383.587M412.344 227.318V225.978M412.344 225.978V211.268M412.344 225.978H380.244M340.283 225.978H352.825M412.344 211.268H416.356M412.344 211.268H399.637V207.924H412.344M416.356 211.268H429.062V207.924H420.703M412.344 207.924V203.911H420.703V207.924M412.344 207.924H420.703M383.587 231.328L386.931 218.624M386.931 218.624H396.962M386.931 218.624L386.374 215.949M396.962 218.624L399.637 231.999M396.962 218.624C397.854 218.401 399.37 217.554 398.3 215.949H386.374M383.587 202.574L386.374 215.949M427.725 231.328L430.4 218.624M427.725 231.328H442.437M430.4 218.624H440.431M430.4 218.624C428.84 218.401 426.387 217.42 429.062 215.28H441.1M441.1 218.624L442.437 231.328M441.1 218.624H440.431M441.1 218.624L441.657 215.28M442.437 231.328H447.787V225.978H440.431M440.431 225.978V218.624M443.775 202.574L441.657 215.28M441.657 215.28H441.1M441.1 169.136V215.28M441.1 169.136C445.38 171.276 447.342 166.461 447.787 163.786M441.1 169.136C439.762 168.69 437.087 166.996 437.087 163.786M311.362 169.136V201.719M311.362 169.136C315.107 168.601 316.267 165.347 316.378 163.786M311.362 169.136C309.579 169.359 305.879 168.601 305.344 163.786M352.825 225.978H380.244M352.825 225.978V199.23M380.244 225.978V199.23M352.825 199.23V176.493H380.244V199.23M352.825 199.23H380.244M356.837 201.719V209.93M397.631 189.199L405.656 181.174M398.969 193.88L409.669 183.849M413.012 193.88L423.712 183.18M418.362 195.218L425.719 187.861M325.406 188.53L332.762 181.174M327.412 192.543L338.112 182.511M305.344 163.786H316.378M305.344 163.786L312.031 149.743M447.787 163.786H437.087M447.787 163.786L441.1 149.743M437.087 163.786H425.719M437.087 163.786C437.087 163.912 437.083 164.045 437.073 164.184M425.719 163.786C425.184 166.996 428.171 169.136 429.731 169.805C435.283 170.31 436.907 166.489 437.073 164.184M425.719 163.786C425.273 166.461 423.044 171.276 417.694 169.136C416.579 168.245 414.484 165.926 415.019 163.786M425.719 163.786H415.019M425.719 163.786L420.703 149.743M415.019 163.786C414.796 166.684 412.879 171.811 406.994 169.136C405.879 168.69 403.784 166.996 404.319 163.786M415.019 163.786H404.319M415.019 163.786L411.006 149.743M404.319 163.786C403.873 166.238 401.644 170.875 396.294 169.805C394.956 168.913 392.415 166.461 392.95 163.786M404.319 163.786H392.95M404.319 163.786L400.975 149.743M392.95 163.786C392.727 166.461 390.81 171.41 384.925 169.805C383.587 169.136 381.18 166.996 382.25 163.786M392.95 163.786H382.25M392.95 163.786L390.944 149.743M382.25 163.786C381.581 166.907 379.04 172.346 374.225 169.136C373.11 168.245 370.881 165.926 370.881 163.786M382.25 163.786H370.881M382.25 163.786L381.581 149.743M370.881 163.786C370.212 166.684 367.671 171.811 362.856 169.136C361.965 168.913 360.181 167.531 360.181 163.786M370.881 163.786H360.181M370.881 163.786V149.743M360.181 163.786C359.958 166.461 358.041 171.276 352.156 169.136C351.042 168.468 348.946 166.461 349.481 163.786M360.181 163.786H349.481M360.181 163.786L361.519 149.743M349.481 163.786C348.367 166.684 344.934 171.811 340.119 169.136C339.227 168.245 337.577 165.926 338.112 163.786M349.481 163.786H338.112M349.481 163.786L352.156 149.743M338.112 163.786C337.444 166.461 334.902 171.276 330.087 169.136C328.973 168.69 326.877 166.996 327.412 163.786M338.112 163.786H327.412M338.112 163.786L341.456 149.743M327.412 163.786C326.521 166.461 323.534 171.276 318.719 169.136C317.827 168.468 316.111 166.461 316.378 163.786M327.412 163.786H316.378M327.412 163.786L332.094 150.411M316.378 163.786L322.062 149.743M312.031 149.743H322.062M312.031 149.743V136.368H320.725M441.1 149.743H430.902M441.1 149.743V136.368H431.069M322.062 149.743H341.456M341.456 149.743H352.156M352.156 149.743H361.519M361.519 149.743H370.881M370.881 149.743H381.581M381.581 149.743H390.944M390.944 149.743H400.975M400.975 149.743H411.006M411.006 149.743H420.703M420.703 149.743H430.902M437.073 164.184L430.902 149.743M342.794 136.368C342.571 134.138 343.596 129.279 349.481 127.674H402.981C405.21 128.12 409.669 130.483 409.669 136.368M342.794 136.368C342.794 141.718 346.806 143.947 348.812 144.393H402.312C408.197 143.323 409.669 138.597 409.669 136.368M342.794 136.368H320.725M409.669 136.368H431.069M366.2 133.693C364.973 132.132 361.883 129.948 359.344 133.693V138.374C360.514 139.934 363.525 141.985 366.2 137.705M368.206 141.049L369.222 138M376.231 141.049L374.809 138M369.222 138L371.55 131.018L374.809 138M369.222 138H374.809M378.906 141.049V136.368M384.256 131.686H378.906V136.368M378.906 136.368H383.587M392.281 131.686H386.931V136.033M386.931 136.033V140.38H392.281M386.931 136.033H392.064M431.069 136.368V125.668C430.846 124.776 429.999 123.126 428.394 123.661H323.4C322.508 123.661 320.725 124.196 320.725 126.336C320.725 128.476 320.725 133.915 320.725 136.368M364.862 114.968H386.262M368.206 100.924L370.212 106.943M386.931 99.5293C386.967 98.8118 386.963 98.1512 386.931 97.5801H364.194C363.659 106.675 368.875 110.732 371.55 111.624H379.575C382.224 110.962 383.977 109.138 385.107 106.943M386.931 99.5293C388.492 99.5483 391.612 100.389 391.612 103.599C391.612 106.809 387.276 107.165 385.107 106.943M386.931 99.5293C386.82 101.773 386.326 104.574 385.107 106.943M369.544 88.2176V90.2238C369.767 90.6697 370.346 91.5613 370.881 91.5613C371.416 91.5613 371.104 92.8988 370.881 93.5676L370.212 94.9051M374.894 87.5488V90.2238C374.894 90.4467 375.027 90.8926 375.562 90.8926C376.097 90.8926 376.231 92.2301 376.231 92.8988L375.562 94.9051M380.244 88.2176V90.8926C380.244 91.1155 380.377 91.5613 380.912 91.5613C381.447 91.5613 381.135 92.8988 380.912 93.5676L380.244 94.9051M504.631 226.649H502.625C501.287 226.872 498.746 228.254 499.281 231.999H516C515.777 230.215 514.662 226.649 511.987 226.649H509.981M504.631 226.649V198.561C505.148 197.399 506.144 195.967 507.306 195.905M504.631 226.649H509.981M509.981 226.649V198.561C509.081 196.537 508.15 195.86 507.306 195.905M507.306 195.905V133.024C507.306 129.234 504.497 121.521 493.262 120.986M493.262 120.986V123.661L489.25 123.523M493.262 120.986V118.98C489.919 117.865 482.295 115.904 478.55 116.974C474.805 118.044 473.869 121.432 473.869 122.993L476.544 123.085M476.544 123.085C477.212 124.837 479.62 128.075 483.9 127.005C488.18 125.935 489.25 124.238 489.25 123.523M476.544 123.085L489.25 123.523M360.85 184.518V191.874H372.219V184.518H360.85ZM390.944 201.719V175.824H431.737V201.719H390.944ZM320.725 201.719V177.161H342.794V201.719H320.725Z" stroke="#001D3D" stroke-width="2" stroke-linecap="round"/>
<circle cx="375.562" cy="102.264" r="19.0625" stroke="#001D3D" stroke-width="2" stroke-linecap="round"/>
<path d="M434.223 173.89V170.258" stroke="#001D3D" stroke-width="2" stroke-linecap="round"/>
<path d="M615.905 223.821V227.229M615.905 223.821L616.899 220.414M615.905 223.821H607.726M615.905 227.229H617.95L622.721 209.508C623.267 206.781 625.675 206.554 626.811 206.781V217.005H636.353V219.05H629.537M615.905 227.229H605V223.821H607.726M659.527 179.518C655.71 178.427 655.211 181.335 655.438 182.926V189.741H653.393M659.527 179.518V178.155H666.343C666.57 179.518 666.616 182.245 664.98 182.245M659.527 179.518V182.245M659.527 179.518H653.393V189.741M664.98 182.245H659.527M664.98 182.245V189.061M659.527 182.245C658.437 181.7 658.164 183.381 658.164 184.29V189.061M653.393 189.741H647.94M624.085 221.095V206.781M648.622 231.319C635.535 234.046 628.629 226.093 626.811 221.776V219.05H629.537M629.537 219.05C631.128 222.458 636.217 229.002 643.851 227.911M629.537 216.324V206.781H637.716M639.08 204.736H629.537V196.558M629.537 196.558V194.513C629.537 193.832 629.946 192.469 631.582 192.469L655.438 193.149V197.24H650.667L647.94 196.558H641.806M629.537 196.558H641.806M641.806 193.149V196.558M658.164 197.921V189.061M664.98 202.692V189.061M658.164 189.061H664.98M626.811 196.558V204.736C623.539 203.646 621.358 206.1 620.677 207.463L616.899 220.414M626.811 196.558V193.149C626.811 191.786 627.765 189.196 631.582 189.741H635.282M626.811 196.558C626.116 196.384 625.116 196.224 624.085 196.214M613.179 220.414C614.997 213.825 618.904 200.102 619.995 197.921C620.669 196.574 622.418 196.198 624.085 196.214M613.179 220.414H616.899M613.179 220.414C611.134 220.868 607.181 222.184 607.726 223.821M632.945 182.926L632.264 185.653M632.945 182.926L638.398 184.29M632.945 182.926L630.9 180.881L630.673 181.562M632.264 185.653C629.267 187.221 628.289 184.034 628.174 182.244M632.264 185.653C633.035 185.974 634.091 186.397 635.282 186.851M644.532 189.741H647.94M644.532 189.741C642.187 189.35 638.299 188.001 635.282 186.851M644.532 189.741H635.282M647.94 189.741C648.849 189.287 650.667 187.287 650.667 182.926M650.667 182.926H652.03V176.11M650.667 182.926H645.896M652.03 176.11C650.667 175.202 647.395 173.929 645.214 176.11M652.03 176.11C653.166 174.974 654.893 171.747 652.711 167.93C651.314 165.485 650.588 163.655 650.247 162.477M645.214 176.11C643.033 178.291 642.033 177.927 641.806 177.473C641.365 177.473 640.679 177.601 640.026 177.982M645.214 176.11V171.337M638.398 184.29C638.171 183.835 637.853 182.38 638.398 180.199C638.679 179.076 639.333 178.386 640.026 177.982M638.398 184.29C639.988 184.971 643.714 186.199 645.896 185.653V182.926M645.896 182.926V178.836M628.174 182.244L630.219 182.925L630.673 181.562M628.174 182.244L625.448 178.836L626.811 176.791L630.673 181.562M635.282 186.851V189.741M635.916 164.521C636.217 164.604 636.586 164.611 637.035 164.521L637.716 161.795C638.852 163.613 641.942 166.702 645.214 164.521C646.804 164.749 649.031 165.885 645.214 168.611V171.337M635.916 164.521C636.225 165.636 636.657 168.213 635.916 169.602L637.035 169.733M635.916 164.521C635.046 164.284 634.744 163.421 634.715 162.477M645.214 171.337C645.214 171.11 644.805 171.065 643.169 172.7C641.533 174.336 640.216 172.928 639.761 172.019C637.58 171.474 638.398 170.428 639.08 169.974L637.035 169.733M640.026 177.982C638.802 178.332 636.49 177.174 637.035 169.733M624.085 196.214V162.477M624.085 162.477H634.715M624.085 162.477H613.861M634.715 162.477C634.693 161.764 634.827 161.004 634.99 160.433C635.641 159.565 636.851 158.314 638.413 157.303M613.861 162.477L619.995 157.303M613.861 162.477L609.771 158.387L670.433 107.949L689.886 124.307M727.005 162.477L720.871 157.303M727.005 162.477L730.413 158.387L705.194 137.18M727.005 162.477H717.271M650.247 162.477C650.055 161.816 649.985 161.359 649.985 161.115C649.985 160.146 649.58 158.536 648.278 157.303M650.247 162.477H717.271M619.995 157.303L670.433 114.765L720.871 157.303M619.995 157.303H638.413M638.413 157.303C640.122 156.196 642.253 155.377 644.532 155.662C646.237 155.875 647.443 156.512 648.278 157.303M648.278 157.303H720.871M670.433 128.78V142.029M664.586 135.213H677.723M689.886 124.307V118.173H705.194V137.18M689.886 124.307L705.194 137.18M703.149 231.319H681.338V186.851M703.149 231.319V214.278M703.149 231.319H709.284V225.183M686.109 197.921V204.736M681.338 186.851V176.11H703.149V186.851M681.338 186.851H703.149M703.149 186.851V214.278M703.149 214.278C704.058 211.323 706.557 206.915 709.284 212.914V217.686M718.826 212.914V231.319M718.826 212.914C719.735 210.869 722.234 208.006 724.96 212.914V217.686M718.826 212.914C718.296 211.96 717.774 211.3 717.271 210.87M718.826 231.319H712.692V225.183M718.826 231.319H724.96V224.502M709.284 225.183H712.692M709.284 225.183V217.686M712.692 225.183V217.686M709.284 217.686H712.692M712.692 217.686V212.914C713.424 211.267 715.188 209.088 717.271 210.87M724.96 217.686H727.005M724.96 217.686V224.502M727.005 217.686V212.914C727.914 210.869 730.277 208.006 732.458 212.914V219.049M727.005 217.686V224.502M724.96 224.502H727.005M727.005 224.502V231.319H732.458V225.183M732.458 225.183H736.547M732.458 225.183V219.049M736.547 225.183V231.319H742V212.914C739.819 208.006 737.456 210.869 736.547 212.914V219.049M736.547 225.183V219.049M736.547 219.049H732.458M717.271 210.87V162.477" stroke="#001D3D" stroke-width="2" stroke-linecap="round"/>
<circle cx="670.691" cy="135.214" r="7.1791" stroke="#001D3D" stroke-width="2" stroke-linecap="round"/>
<circle cx="623.402" cy="226.546" r="4.45274" stroke="#001D3D" stroke-width="2" stroke-linecap="round"/>
<circle cx="653.396" cy="214.28" r="12.6318" stroke="#001D3D" stroke-width="2" stroke-linecap="round"/>
<circle cx="653.389" cy="214.278" r="16.7214" stroke="#001D3D" stroke-width="2" stroke-linecap="round"/>
<circle cx="654.072" cy="213.599" r="1.04478" fill="#003566" stroke="#001D3D" stroke-width="2" stroke-linecap="round"/>
<circle cx="639.25" cy="166.784" r="0.469178" fill="#003566"/>
<line x1="8.74228e-08" y1="232" x2="762" y2="232" stroke="#001D3D" stroke-width="2"/>
<line x1="8.74228e-08" y1="316" x2="762" y2="316" stroke="#001D3D" stroke-width="2"/>
<line x1="1" y1="275" x2="56" y2="275" stroke="#001D3D" stroke-width="2"/>
<line x1="89" y1="275" x2="144" y2="275" stroke="#001D3D" stroke-width="2"/>
<line x1="177" y1="275" x2="232" y2="275" stroke="#001D3D" stroke-width="2"/>
<line x1="265" y1="275" x2="320" y2="275" stroke="#001D3D" stroke-width="2"/>
<line x1="353" y1="275" x2="408" y2="275" stroke="#001D3D" stroke-width="2"/>
<line x1="441" y1="275" x2="496" y2="275" stroke="#001D3D" stroke-width="2"/>
<line x1="529" y1="275" x2="584" y2="275" stroke="#001D3D" stroke-width="2"/>
<line x1="617" y1="275" x2="672" y2="275" stroke="#001D3D" stroke-width="2"/>
<line x1="705" y1="275" x2="760" y2="275" stroke="#001D3D" stroke-width="2"/>
<path d="M381.999 29.0006C383.329 29.0006 384.466 28.5274 385.413 27.5809C386.359 26.6343 386.833 25.4965 386.833 24.1673C386.833 22.8381 386.359 21.7003 385.413 20.7538C384.466 19.8072 383.329 19.334 381.999 19.334C380.67 19.334 379.532 19.8072 378.586 20.7538C377.639 21.7003 377.166 22.8381 377.166 24.1673C377.166 25.4965 377.639 26.6343 378.586 27.5809C379.532 28.5274 380.67 29.0006 381.999 29.0006ZM381.999 53.1673C375.515 47.6493 370.671 42.5239 367.469 37.7913C364.267 33.0586 362.666 28.6784 362.666 24.6506C362.666 18.609 364.609 13.7958 368.496 10.2111C372.383 6.62635 376.884 4.83398 381.999 4.83398C387.115 4.83398 391.616 6.62635 395.502 10.2111C399.389 13.7958 401.333 18.609 401.333 24.6506C401.333 28.6784 399.732 33.0586 396.53 37.7913C393.327 42.5239 388.484 47.6493 381.999 53.1673Z" fill="#1D1B20"/>
</svg>
