<svg width="1920" height="317" viewBox="0 0 1920 317" fill="none" xmlns="http://www.w3.org/2000/svg">
<path d="M265.366 118.055V232.085H271.746V212.149M265.366 118.055H271.746M265.366 118.055H255V111.676M271.746 118.055H403.319M271.746 118.055V135.597M403.319 118.055H409.698M403.319 118.055V135.597M409.698 118.055V232.085H403.319V212.149M409.698 118.055H420.064V111.676M420.064 111.676H255M420.064 111.676L414.483 104.499C414.217 103.968 413.207 102.904 411.293 102.904C409.379 102.904 313.211 102.904 265.366 102.904C264.037 102.639 261.06 102.585 259.784 104.499C258.509 106.413 256.063 110.081 255 111.676M339.526 134.003H337.133M338.728 135.597C338.728 135.066 338.888 133.524 339.526 131.61C340.164 129.697 341.918 130.281 342.715 130.813C344.588 131.281 348.48 132.038 350.69 131.776M337.133 134.003H334.741V127.623C336.655 123.158 342.981 123.105 345.905 123.636L351.487 122.839V126.826C354.039 126.826 354.145 128.952 353.879 130.015C353.879 130.281 353.401 130.972 351.487 131.61C351.258 131.687 350.989 131.741 350.69 131.776M337.133 134.003C336.712 134.283 336.157 134.846 335.916 135.597M350.69 131.776V135.597M338.728 140.382V145.166M338.728 145.166C339.792 146.761 342.396 149.632 344.31 148.356C345.108 147.824 346.702 146.442 346.702 145.166M338.728 145.166C334.741 145.166 326.608 146.921 325.97 153.938V157.925L326.273 158.001M346.702 145.166V143.217M346.702 145.166C348.031 145.166 350.849 145.485 351.487 146.761M346.702 143.217C343.111 144.833 339.415 141.564 337.931 139.584C337.293 138.309 336.602 137.99 336.336 137.99C335.734 137.087 335.7 136.267 335.916 135.597M346.702 143.217C346.969 143.097 347.235 142.95 347.5 142.774C348.297 142.242 350.052 140.541 350.69 137.99V135.597M356.271 152.343L358.664 145.964H351.487L349.095 153.938H352.284C352.284 153.008 352.484 151.811 353.082 151.247M356.271 152.343C356.803 152.609 357.707 153.938 357.069 157.128M356.271 152.343C354.677 150.748 353.68 150.682 353.082 151.247M357.069 157.128C356.226 157.633 354.85 158.395 353.955 158.722M357.069 157.128C358.983 159.041 359.461 164.836 359.461 167.494C358.823 169.408 357.069 168.823 356.271 168.291C353.72 166.378 353.664 161.115 353.955 158.722M353.082 158.722C353.082 158.956 353.438 158.912 353.955 158.722M353.082 158.722V179.455C352.818 179.536 352.552 179.613 352.284 179.685M353.082 158.722C353.082 158.604 353.082 158.35 353.082 158.001M353.082 151.247C353.082 153.061 353.082 156.46 353.082 158.001M332.349 159.52L334.741 154.735L333.944 159.52H332.349ZM332.349 159.52L326.273 158.001M326.273 158.001L325.97 165.899C325.97 167.76 326.927 171.003 330.754 169.089M330.754 169.089L344.31 159.52C345.908 159.374 348.046 158.912 348.928 158.001M330.754 169.089V178.658C330.998 178.739 331.264 178.823 331.552 178.908M329.957 163.507L341.918 156.33C344.47 150.626 347.766 151.295 349.095 152.343L347.5 154.735C349.525 156.182 349.659 157.245 348.928 158.001M331.552 178.908L333.146 195.403C333.336 196.351 333.58 198.463 333.472 200.985M331.552 178.908C335.814 180.172 344.668 181.74 352.284 179.685M338.728 224.908L333.521 224.257M338.728 224.908L342.715 227.3C343.991 227.938 343.779 229.692 343.513 230.489H332.349C331.411 227.3 332.74 225.005 333.521 224.257M338.728 224.908L340.855 212.149M341.918 205.77C342.184 204.441 342.715 201.145 342.715 198.593L344.31 185.834L345.108 198.593C345.108 199.922 345.108 202.899 345.108 204.175L345.171 205.77M341.918 205.77L340.855 212.149M341.918 205.77H345.171M351.487 224.11H346.702M351.487 224.11L357.069 227.3C358.983 227.938 358.929 229.692 358.664 230.489H345.905C345.267 228.576 346.171 225.439 346.702 224.11M351.487 224.11L353.047 212.149M353.879 205.77L353.047 212.149M353.879 205.77H392.155M353.879 205.77C354.039 204.81 354.238 202.983 354.231 200.985M352.284 179.685L353.879 196.998C354.133 198.268 354.227 199.664 354.231 200.985M333.521 224.257L332.349 224.11L332.827 212.149M346.702 224.11H345.905L345.427 212.149M348.928 158.001H353.082M271.746 135.597H335.916M271.746 135.597V212.149M350.69 135.597H403.319M403.319 135.597V212.149M271.746 212.149H282.909M332.827 212.149L333.083 205.77M332.827 212.149H282.909M340.855 212.149H345.427M345.427 212.149L345.171 205.77M353.047 212.149H392.155M403.319 212.149H392.155M392.155 212.149V205.77M392.155 205.77H396.939V200.985H354.231M333.083 205.77L333.146 204.175C333.329 203.078 333.429 201.998 333.472 200.985M333.083 205.77H282.909M333.472 200.985H278.922V205.77H282.909M282.909 205.77V212.149M286.099 185.834L322.78 153.938M300.453 185.834L317.198 170.684M289.289 171.481L311.616 151.546M367.435 161.912L380.991 150.748M360.258 181.05L394.175 151.247M369.03 184.24L389.763 166.696M443.987 224.908H440.797C436.97 224.908 435.481 229.693 435.215 232.085H457.543C458.181 226.982 454.619 225.174 452.758 224.908H449.569M443.987 224.908V154.735M443.987 224.908H449.569M443.987 154.735H449.569M443.987 154.735H433.62C432.026 154.735 428.836 153.619 428.836 149.153V118.055C428.836 116.726 429.474 114.227 432.026 114.865H461.53C462.327 114.865 463.922 115.662 463.922 118.852V151.247C464.188 152.675 463.922 155.373 460.732 154.735H449.569M449.569 154.735V224.908M436.013 136.395V145.166H438.405M436.013 136.395H456.745M436.013 136.395V130.813M456.745 136.395V145.166H454.353M456.745 136.395V130.813M436.013 126.826V126.028C436.013 124.699 436.651 122.041 439.202 122.041H453.556C454.619 122.041 456.745 122.839 456.745 126.028V126.826M436.013 126.826H456.745M436.013 126.826V130.813M456.745 126.826V130.813M438.405 145.166V148.356M438.405 145.166H454.353M454.353 145.166V148.356M432.823 135.597V130.813H436.013M459.935 135.597V130.813H456.745" stroke="#001D3D" stroke-width="2" stroke-linecap="round"/>
<circle cx="440.001" cy="141.179" r="1.59483" stroke="#001D3D" stroke-width="2" stroke-linecap="round"/>
<circle cx="452.759" cy="141.179" r="1.59483" stroke="#001D3D" stroke-width="2" stroke-linecap="round"/>
<circle cx="343.512" cy="135.596" r="0.797413" fill="#003566"/>
<circle cx="348.297" cy="135.596" r="0.797413" fill="#003566"/>
<mask id="path-6-inside-1_326_223" fill="white">
<ellipse cx="345.903" cy="140.381" rx="1.59483" ry="0.797413"/>
</mask>
<ellipse cx="345.903" cy="140.381" rx="1.59483" ry="0.797413" fill="#003566"/>
<path d="M347.498 140.381H345.498C345.498 139.918 345.693 139.581 345.846 139.4C345.988 139.233 346.114 139.168 346.137 139.156C346.18 139.135 346.101 139.179 345.903 139.179V141.179V143.179C346.587 143.179 347.305 143.045 347.926 142.734C348.427 142.483 349.498 141.767 349.498 140.381H347.498ZM345.903 141.179V139.179C345.706 139.179 345.627 139.135 345.67 139.156C345.693 139.168 345.819 139.233 345.961 139.4C346.114 139.581 346.309 139.918 346.309 140.381H344.309H342.309C342.309 141.767 343.38 142.483 343.881 142.734C344.502 143.045 345.22 143.179 345.903 143.179V141.179ZM344.309 140.381H346.309C346.309 140.845 346.114 141.182 345.961 141.363C345.819 141.53 345.693 141.595 345.67 141.606C345.627 141.628 345.706 141.584 345.903 141.584V139.584V137.584C345.22 137.584 344.502 137.718 343.881 138.029C343.38 138.279 342.309 138.996 342.309 140.381H344.309ZM345.903 139.584V141.584C346.101 141.584 346.18 141.628 346.137 141.606C346.114 141.595 345.988 141.53 345.846 141.363C345.693 141.182 345.498 140.845 345.498 140.381H347.498H349.498C349.498 138.996 348.427 138.279 347.926 138.029C347.305 137.718 346.587 137.584 345.903 137.584V139.584Z" fill="#001D3D" mask="url(#path-6-inside-1_326_223)"/>
<path d="M885.7 225.585H880V231.285H891.4M885.7 225.585C886.175 227.485 887.98 231.285 891.4 231.285M885.7 225.585C885.7 222.165 887.125 220.36 887.837 219.885M891.4 231.285H897.812M897.812 231.285H912.062M897.812 231.285C899.051 230.184 900.72 228.062 901.24 225.585M899.95 219.885H887.837M899.95 219.885C903.94 218.744 903.987 215.134 903.512 213.473C906.362 203.783 900.9 202.311 897.812 202.786C894.04 198.071 891.539 198.051 889.975 199.738M899.95 219.885C901.388 221.803 901.617 223.787 901.24 225.585M887.837 219.885C885.7 219.173 881.995 216.893 884.275 213.473C882.85 210.623 881.567 205.065 887.837 205.635C888.051 203.612 888.703 201.111 889.975 199.738M912.062 231.285H918.475M912.062 231.285C910.637 230.395 908.542 228.274 908.79 225.585M909.925 222.737H919.9M909.925 222.737C909.214 223.733 908.872 224.691 908.79 225.585M909.925 222.737C908.262 221.787 905.507 219.46 907.787 217.75C906.837 216.087 905.935 212.477 909.925 211.337C909.925 207.775 911.635 202.36 918.475 209.2C920.85 209.438 924.887 211.481 922.037 217.75C922.512 218.937 922.75 221.597 919.9 222.737M919.9 222.737C920.274 223.391 920.663 224.413 920.788 225.585M918.475 231.285C920.549 229.556 920.981 227.392 920.788 225.585M918.475 231.285H966.925M901.24 225.585H908.79M1001.84 225.585V227.012M1001.84 225.585V209.912M1001.84 225.585H1027.49M1001.84 227.012C1003.02 227.486 1005.4 229.004 1005.4 231.285M1001.84 227.012H997.562M1005.4 231.285H994M1005.4 231.285H1013.95M994 231.285C993.762 230.336 994.142 228.154 997.562 227.012M994 231.285H966.925M997.562 227.012V225.585M997.562 225.585V209.912M997.562 225.585H963.362M920.788 225.585H934.15M997.562 209.912H1001.84M997.562 209.912H984.025V206.35H997.562M1001.84 209.912H1015.37V206.35H1006.47M997.562 206.35V202.075H1006.47V206.35M997.562 206.35H1006.47M966.925 231.285L970.487 217.75M970.487 217.75H981.175M970.487 217.75L969.894 214.9M981.175 217.75L984.025 232M981.175 217.75C982.125 217.512 983.74 216.61 982.6 214.9H969.894M966.925 200.65L969.894 214.9M1013.95 231.285L1016.8 217.75M1013.95 231.285H1029.62M1016.8 217.75H1027.49M1016.8 217.75C1015.14 217.512 1012.52 216.467 1015.37 214.187H1028.2M1028.2 217.75L1029.62 231.285M1028.2 217.75H1027.49M1028.2 217.75L1028.79 214.187M1029.62 231.285H1035.32V225.585H1027.49M1027.49 225.585V217.75M1031.05 200.65L1028.79 214.187M1028.79 214.187H1028.2M1028.2 165.025V214.187M1028.2 165.025C1032.76 167.305 1034.85 162.175 1035.32 159.325M1028.2 165.025C1026.77 164.55 1023.92 162.745 1023.92 159.325M889.975 165.025V199.738M889.975 165.025C893.965 164.455 895.2 160.987 895.319 159.325M889.975 165.025C888.075 165.262 884.132 164.455 883.562 159.325M934.15 225.585H963.362M934.15 225.585V197.087M963.362 225.585V197.087M934.15 197.087V172.862H963.362V197.087M934.15 197.087H963.362M938.425 199.738V208.487M981.887 186.4L990.437 177.85M983.312 191.387L994.712 180.7M998.275 191.387L1009.67 179.987M1003.97 192.812L1011.81 184.975M904.937 185.687L912.775 177.85M907.075 189.962L918.475 179.275M883.562 159.325H895.319M883.562 159.325L890.687 144.362M1035.32 159.325H1023.92M1035.32 159.325L1028.2 144.362M1023.92 159.325H1011.81M1023.92 159.325C1023.92 159.459 1023.92 159.601 1023.91 159.748M1011.81 159.325C1011.24 162.745 1014.42 165.025 1016.09 165.737C1022 166.275 1023.73 162.204 1023.91 159.748M1011.81 159.325C1011.34 162.175 1008.96 167.305 1003.26 165.025C1002.07 164.075 999.842 161.605 1000.41 159.325M1011.81 159.325H1000.41M1011.81 159.325L1006.47 144.362M1000.41 159.325C1000.17 162.412 998.132 167.875 991.862 165.025C990.675 164.55 988.442 162.745 989.012 159.325M1000.41 159.325H989.012M1000.41 159.325L996.137 144.362M989.012 159.325C988.537 161.937 986.162 166.877 980.462 165.737C979.037 164.787 976.33 162.175 976.9 159.325M989.012 159.325H976.9M989.012 159.325L985.45 144.362M976.9 159.325C976.662 162.175 974.62 167.447 968.35 165.737C966.925 165.025 964.36 162.745 965.5 159.325M976.9 159.325H965.5M976.9 159.325L974.762 144.362M965.5 159.325C964.787 162.65 962.08 168.445 956.95 165.025C955.762 164.075 953.387 161.605 953.387 159.325M965.5 159.325H953.387M965.5 159.325L964.787 144.362M953.387 159.325C952.675 162.412 949.967 167.875 944.837 165.025C943.887 164.787 941.987 163.315 941.987 159.325M953.387 159.325H941.987M953.387 159.325V144.362M941.987 159.325C941.75 162.175 939.707 167.305 933.437 165.025C932.25 164.312 930.017 162.175 930.587 159.325M941.987 159.325H930.587M941.987 159.325L943.412 144.362M930.587 159.325C929.4 162.412 925.742 167.875 920.612 165.025C919.662 164.075 917.905 161.605 918.475 159.325M930.587 159.325H918.475M930.587 159.325L933.437 144.362M918.475 159.325C917.762 162.175 915.055 167.305 909.925 165.025C908.737 164.55 906.505 162.745 907.075 159.325M918.475 159.325H907.075M918.475 159.325L922.037 144.362M907.075 159.325C906.125 162.175 902.942 167.305 897.812 165.025C896.862 164.312 895.034 162.175 895.319 159.325M907.075 159.325H895.319M907.075 159.325L912.062 145.075M895.319 159.325L901.375 144.362M890.687 144.362H901.375M890.687 144.362V130.112H899.95M1028.2 144.362H1017.33M1028.2 144.362V130.112H1017.51M901.375 144.362H922.037M922.037 144.362H933.437M933.437 144.362H943.412M943.412 144.362H953.387M953.387 144.362H964.787M964.787 144.362H974.762M974.762 144.362H985.45M985.45 144.362H996.137M996.137 144.362H1006.47M1006.47 144.362H1017.33M1023.91 159.748L1017.33 144.362M923.462 130.112C923.225 127.737 924.317 122.56 930.587 120.85H987.587C989.962 121.325 994.712 123.842 994.712 130.112M923.462 130.112C923.462 135.812 927.737 138.187 929.875 138.662H986.875C993.145 137.522 994.712 132.487 994.712 130.112M923.462 130.112H899.95M994.712 130.112H1017.51M948.4 127.262C947.092 125.6 943.801 123.272 941.095 127.262V132.25C942.342 133.912 945.55 136.097 948.4 131.537M950.537 135.1L951.62 131.852M959.087 135.1L957.572 131.852M951.62 131.852L954.1 124.412L957.572 131.852M951.62 131.852H957.572M961.937 135.1V130.112M967.637 125.125H961.937V130.112M961.937 130.112H966.925M976.187 125.125H970.487V129.756M970.487 129.756V134.387H976.187M970.487 129.756H975.956M1017.51 130.112V118.712C1017.27 117.762 1016.37 116.005 1014.66 116.575H902.8C901.85 116.575 899.95 117.145 899.95 119.425C899.95 121.705 899.95 127.5 899.95 130.112M946.975 107.312H969.775M950.537 92.3496L952.675 98.7621M970.487 90.8639C970.525 90.0994 970.521 89.3956 970.487 88.7871H946.262C945.692 98.4771 951.25 102.8 954.1 103.75H962.65C965.472 103.044 967.34 101.101 968.544 98.7621M970.487 90.8639C972.15 90.8841 975.475 91.7796 975.475 95.1996C975.475 98.6196 970.855 98.9996 968.544 98.7621M970.487 90.8639C970.369 93.2544 969.843 96.2389 968.544 98.7621M951.962 78.8121V80.9496C952.2 81.4246 952.817 82.3746 953.387 82.3746C953.957 82.3746 953.625 83.7996 953.387 84.5121L952.675 85.9371M957.662 78.0996V80.9496C957.662 81.1871 957.805 81.6621 958.375 81.6621C958.945 81.6621 959.087 83.0871 959.087 83.7996L958.375 85.9371M963.362 78.8121V81.6621C963.362 81.8996 963.505 82.3746 964.075 82.3746C964.645 82.3746 964.312 83.7996 964.075 84.5121L963.362 85.9371M1095.89 226.3H1093.75C1092.32 226.537 1089.62 228.01 1090.19 232H1108C1107.76 230.1 1106.57 226.3 1103.72 226.3H1101.59M1095.89 226.3V196.375C1096.44 195.136 1097.5 193.61 1098.74 193.544M1095.89 226.3H1101.59M1101.59 226.3V196.375C1100.63 194.217 1099.64 193.496 1098.74 193.544M1098.74 193.544V126.55C1098.74 122.512 1095.74 114.295 1083.77 113.725M1083.77 113.725V116.575L1079.5 116.427M1083.77 113.725V111.587C1080.21 110.4 1072.09 108.31 1068.1 109.45C1064.11 110.59 1063.11 114.2 1063.11 115.862L1065.96 115.96M1065.96 115.96C1066.67 117.828 1069.24 121.277 1073.8 120.137C1078.36 118.997 1079.5 117.189 1079.5 116.427M1065.96 115.96L1079.5 116.427M942.7 181.412V189.25H954.812V181.412H942.7ZM974.762 199.738V172.15H1018.22V199.738H974.762ZM899.95 199.738V173.575H923.462V199.738H899.95Z" stroke="#001D3D" stroke-width="2" stroke-linecap="round"/>
<circle cx="958.375" cy="93.7754" r="20.375" stroke="#001D3D" stroke-width="2" stroke-linecap="round"/>
<path d="M1592.22 173.89V170.258" stroke="#001D3D" stroke-width="2" stroke-linecap="round"/>
<path d="M1564.62 223.285V226.916M1564.62 223.285L1565.68 219.654M1564.62 223.285H1555.91M1564.62 226.916H1566.8L1571.89 208.031C1572.47 205.125 1575.03 204.883 1576.24 205.125V216.021H1586.41V218.2H1579.15M1564.62 226.916H1553V223.285H1555.91M1611.11 176.071C1607.04 174.908 1606.51 178.008 1606.75 179.703V186.966H1604.57M1611.11 176.071V174.619H1618.37C1618.62 176.072 1618.66 178.977 1616.92 178.977M1611.11 176.071V178.977M1611.11 176.071H1604.57V186.966M1616.92 178.977H1611.11M1616.92 178.977V186.241M1611.11 178.977C1609.95 178.397 1609.66 180.188 1609.66 181.156V186.241M1604.57 186.966H1598.76M1573.34 220.38V205.125M1599.49 231.276C1585.54 234.181 1578.18 225.706 1576.24 221.105V218.2H1579.15M1579.15 218.2C1580.84 221.832 1586.27 228.806 1594.4 227.644M1579.15 215.295V205.125H1587.87M1589.32 202.946H1579.15V194.231M1579.15 194.231V192.052C1579.15 191.325 1579.59 189.873 1581.33 189.873L1606.75 190.598V194.957H1601.67L1598.76 194.231H1592.22M1579.15 194.231H1592.22M1592.22 190.598V194.231M1609.66 195.683V186.241M1616.92 200.768V186.241M1609.66 186.241H1616.92M1576.24 194.231V202.946C1572.76 201.784 1570.43 204.399 1569.71 205.852L1565.68 219.654M1576.24 194.231V190.598C1576.24 189.145 1577.26 186.385 1581.33 186.966H1585.27M1576.24 194.231C1575.5 194.046 1574.44 193.875 1573.34 193.864M1561.72 219.654C1563.65 212.632 1567.82 198.008 1568.98 195.683C1569.7 194.248 1571.56 193.847 1573.34 193.864M1561.72 219.654H1565.68M1561.72 219.654C1559.54 220.137 1555.32 221.541 1555.91 223.285M1582.78 179.703L1582.05 182.609M1582.78 179.703L1588.59 181.156M1582.78 179.703L1580.6 177.523L1580.36 178.25M1582.05 182.609C1578.86 184.28 1577.82 180.884 1577.7 178.976M1582.05 182.609C1582.88 182.951 1584 183.402 1585.27 183.886M1595.13 186.966H1598.76M1595.13 186.966C1592.63 186.549 1588.49 185.112 1585.27 183.886M1595.13 186.966H1585.27M1598.76 186.966C1599.73 186.481 1601.67 184.351 1601.67 179.703M1601.67 179.703H1603.12V172.44M1601.67 179.703H1596.58M1603.12 172.44C1601.67 171.471 1598.18 170.115 1595.86 172.44M1603.12 172.44C1604.33 171.229 1606.17 167.79 1603.85 163.722C1602.36 161.116 1601.58 159.166 1601.22 157.91M1595.86 172.44C1593.53 174.764 1592.47 174.376 1592.22 173.892C1591.75 173.892 1591.02 174.028 1590.33 174.434M1595.86 172.44V167.353M1588.59 181.156C1588.35 180.672 1588.01 179.121 1588.59 176.797C1588.89 175.6 1589.59 174.865 1590.33 174.434M1588.59 181.156C1590.29 181.883 1594.26 183.191 1596.58 182.609V179.703M1596.58 179.703V175.344M1577.7 178.976L1579.88 179.702L1580.36 178.25M1577.7 178.976L1574.79 175.344L1576.24 173.165L1580.36 178.25M1585.27 183.886V186.966M1585.95 160.089C1586.27 160.177 1586.66 160.185 1587.14 160.089L1587.87 157.184C1589.08 159.121 1592.37 162.414 1595.86 160.089C1597.55 160.331 1599.92 161.542 1595.86 164.448V167.353M1585.95 160.089C1586.28 161.277 1586.74 164.024 1585.95 165.503L1587.14 165.644M1585.95 160.089C1585.02 159.836 1584.7 158.916 1584.67 157.91M1595.86 167.353C1595.86 167.111 1595.42 167.062 1593.68 168.806C1591.93 170.549 1590.53 169.048 1590.04 168.079C1587.72 167.498 1588.59 166.385 1589.32 165.9L1587.14 165.644M1590.33 174.434C1589.02 174.808 1586.56 173.573 1587.14 165.644M1573.34 193.864V157.91M1573.34 157.91H1584.67M1573.34 157.91H1562.44M1584.67 157.91C1584.64 157.15 1584.79 156.341 1584.96 155.732C1585.65 154.808 1586.94 153.474 1588.61 152.397M1562.44 157.91L1568.98 152.397M1562.44 157.91L1558.08 153.552L1622.73 99.8008L1643.46 117.234M1683.02 157.91L1676.48 152.397M1683.02 157.91L1686.65 153.552L1659.78 130.952M1683.02 157.91H1672.65M1601.22 157.91C1601.02 157.206 1600.94 156.72 1600.94 156.459C1600.94 155.426 1600.51 153.711 1599.12 152.397M1601.22 157.91H1672.65M1568.98 152.397L1622.73 107.064L1676.48 152.397M1568.98 152.397H1588.61M1588.61 152.397C1590.43 151.217 1592.7 150.344 1595.13 150.648C1596.95 150.875 1598.23 151.553 1599.12 152.397M1599.12 152.397H1676.48M1622.73 122V136.119M1616.5 128.856H1630.5M1643.46 117.234V110.696H1659.78V130.952M1643.46 117.234L1659.78 130.952M1657.6 231.276H1634.35V183.886M1657.6 231.276V213.114M1657.6 231.276H1664.13V224.736M1639.44 195.683V202.946M1634.35 183.886V172.44H1657.6V183.886M1634.35 183.886H1657.6M1657.6 183.886V213.114M1657.6 213.114C1658.57 209.966 1661.23 205.268 1664.13 211.661V216.746M1674.3 211.661V231.276M1674.3 211.661C1675.27 209.482 1677.94 206.431 1680.84 211.661V216.746M1674.3 211.661C1673.74 210.644 1673.18 209.941 1672.65 209.482M1674.3 231.276H1667.77V224.736M1674.3 231.276H1680.84V224.011M1664.13 224.736H1667.77M1664.13 224.736V216.746M1667.77 224.736V216.746M1664.13 216.746H1667.77M1667.77 216.746V211.661C1668.55 209.906 1670.43 207.584 1672.65 209.482M1680.84 216.746H1683.02M1680.84 216.746V224.011M1683.02 216.746V211.661C1683.99 209.482 1686.51 206.431 1688.83 211.661V218.199M1683.02 216.746V224.011M1680.84 224.011H1683.02M1683.02 224.011V231.276H1688.83V224.736M1688.83 224.736H1693.19M1688.83 224.736V218.199M1693.19 224.736V231.276H1699V211.661C1696.68 206.431 1694.16 209.482 1693.19 211.661V218.199M1693.19 224.736V218.199M1693.19 218.199H1688.83M1672.65 209.482V157.91" stroke="#001D3D" stroke-width="2" stroke-linecap="round"/>
<circle cx="1623.01" cy="128.857" r="7.71642" stroke="#001D3D" stroke-width="2" stroke-linecap="round"/>
<circle cx="1572.61" cy="226.188" r="4.81095" stroke="#001D3D" stroke-width="2" stroke-linecap="round"/>
<circle cx="1604.57" cy="213.115" r="13.5274" stroke="#001D3D" stroke-width="2" stroke-linecap="round"/>
<circle cx="1604.57" cy="213.114" r="17.8856" stroke="#001D3D" stroke-width="2" stroke-linecap="round"/>
<circle cx="1605.3" cy="212.39" r="1.1791" fill="#003566" stroke="#001D3D" stroke-width="2" stroke-linecap="round"/>
<circle cx="1589.5" cy="162.5" r="0.5" fill="#003566"/>
<line y1="232" x2="1920" y2="232" stroke="#001D3D" stroke-width="2"/>
<line y1="316" x2="1920" y2="316" stroke="#001D3D" stroke-width="2"/>
<line y1="275" x2="55" y2="275" stroke="#001D3D" stroke-width="2"/>
<line x1="88" y1="275" x2="143" y2="275" stroke="#001D3D" stroke-width="2"/>
<line x1="176" y1="275" x2="231" y2="275" stroke="#001D3D" stroke-width="2"/>
<line x1="264" y1="275" x2="319" y2="275" stroke="#001D3D" stroke-width="2"/>
<line x1="352" y1="275" x2="407" y2="275" stroke="#001D3D" stroke-width="2"/>
<line x1="440" y1="275" x2="495" y2="275" stroke="#001D3D" stroke-width="2"/>
<line x1="528" y1="275" x2="583" y2="275" stroke="#001D3D" stroke-width="2"/>
<line x1="616" y1="275" x2="671" y2="275" stroke="#001D3D" stroke-width="2"/>
<line x1="704" y1="275" x2="759" y2="275" stroke="#001D3D" stroke-width="2"/>
<line x1="792" y1="275" x2="847" y2="275" stroke="#001D3D" stroke-width="2"/>
<line x1="880" y1="275" x2="935" y2="275" stroke="#001D3D" stroke-width="2"/>
<line x1="968" y1="275" x2="1023" y2="275" stroke="#001D3D" stroke-width="2"/>
<line x1="1056" y1="275" x2="1111" y2="275" stroke="#001D3D" stroke-width="2"/>
<line x1="1144" y1="275" x2="1199" y2="275" stroke="#001D3D" stroke-width="2"/>
<line x1="1232" y1="275" x2="1287" y2="275" stroke="#001D3D" stroke-width="2"/>
<line x1="1320" y1="275" x2="1375" y2="275" stroke="#001D3D" stroke-width="2"/>
<line x1="1408" y1="275" x2="1463" y2="275" stroke="#001D3D" stroke-width="2"/>
<line x1="1496" y1="275" x2="1551" y2="275" stroke="#001D3D" stroke-width="2"/>
<line x1="1584" y1="275" x2="1639" y2="275" stroke="#001D3D" stroke-width="2"/>
<line x1="1672" y1="275" x2="1727" y2="275" stroke="#001D3D" stroke-width="2"/>
<line x1="1760" y1="275" x2="1815" y2="275" stroke="#001D3D" stroke-width="2"/>
<line x1="1848" y1="275" x2="1903" y2="275" stroke="#001D3D" stroke-width="2"/>
<path d="M959.999 29.0006C961.329 29.0006 962.466 28.5274 963.413 27.5809C964.359 26.6343 964.833 25.4965 964.833 24.1673C964.833 22.8381 964.359 21.7003 963.413 20.7538C962.466 19.8072 961.329 19.334 959.999 19.334C958.67 19.334 957.532 19.8072 956.586 20.7538C955.639 21.7003 955.166 22.8381 955.166 24.1673C955.166 25.4965 955.639 26.6343 956.586 27.5809C957.532 28.5274 958.67 29.0006 959.999 29.0006ZM959.999 53.1673C953.515 47.6493 948.671 42.5239 945.469 37.7913C942.267 33.0586 940.666 28.6784 940.666 24.6506C940.666 18.609 942.609 13.7958 946.496 10.2111C950.383 6.62635 954.884 4.83398 959.999 4.83398C965.115 4.83398 969.616 6.62635 973.502 10.2111C977.389 13.7958 979.333 18.609 979.333 24.6506C979.333 28.6784 977.732 33.0586 974.53 37.7913C971.327 42.5239 966.484 47.6493 959.999 53.1673Z" fill="#1D1B20"/>
</svg>
