<svg width="32" height="32" viewBox="0 0 32 32" fill="none" xmlns="http://www.w3.org/2000/svg">
<g clip-path="url(#clip0_73_65)">
<path d="M12.0013 25.3326C5.33464 27.3326 5.33464 21.9993 2.66797 21.3326M21.3346 29.3326V24.1726C21.3847 23.5368 21.2988 22.8977 21.0827 22.2977C20.8666 21.6976 20.5252 21.1505 20.0813 20.6926C24.268 20.2259 28.668 18.6393 28.668 11.3593C28.6676 9.4977 27.9516 7.70753 26.668 6.35927C27.2758 4.73061 27.2328 2.9304 26.548 1.3326C26.548 1.3326 24.9746 0.865932 21.3346 3.30593C18.2786 2.47769 15.0573 2.47769 12.0013 3.30593C8.3613 0.865932 6.78797 1.3326 6.78797 1.3326C6.10314 2.9304 6.06016 4.73061 6.66797 6.35927C5.3748 7.71753 4.658 9.52388 4.66797 11.3993C4.66797 18.6259 9.06797 20.2126 13.2546 20.7326C12.816 21.1859 12.4777 21.7265 12.2617 22.3192C12.0458 22.9118 11.957 23.5434 12.0013 24.1726V29.3326" stroke="#001D3D" stroke-width="3" stroke-linecap="round" stroke-linejoin="round"/>
</g>
<defs>
<clipPath id="clip0_73_65">
<rect width="32" height="32" fill="white"/>
</clipPath>
</defs>
</svg>
