<svg width="15" height="14" viewBox="0 0 15 14" fill="none" xmlns="http://www.w3.org/2000/svg">
<path d="M13.0258 2.00739C12.7066 1.68802 12.3276 1.43467 11.9104 1.26182C11.4932 1.08897 11.0461 1 10.5946 1C10.143 1 9.69587 1.08897 9.27871 1.26182C8.86155 1.43467 8.48253 1.68802 8.16331 2.00739L7.50081 2.66989L6.83831 2.00739C6.1935 1.36258 5.31895 1.00033 4.40706 1.00033C3.49516 1.00033 2.62061 1.36258 1.97581 2.00739C1.331 2.6522 0.96875 3.52674 0.96875 4.43864C0.96875 5.35054 1.331 6.22508 1.97581 6.86989L7.50081 12.3949L13.0258 6.86989C13.3452 6.55067 13.5985 6.17165 13.7714 5.75449C13.9442 5.33733 14.0332 4.8902 14.0332 4.43864C14.0332 3.98709 13.9442 3.53996 13.7714 3.12279C13.5985 2.70563 13.3452 2.32661 13.0258 2.00739Z" stroke="#FF4040" stroke-width="2" stroke-linecap="round" stroke-linejoin="round"/>
</svg>
