<svg width="32" height="32" viewBox="0 0 32 32" fill="none" xmlns="http://www.w3.org/2000/svg">
<path d="M23.3346 8.66602H23.348M9.33464 2.66602H22.668C26.3499 2.66602 29.3346 5.65078 29.3346 9.33268V22.666C29.3346 26.3479 26.3499 29.3327 22.668 29.3327H9.33464C5.65274 29.3327 2.66797 26.3479 2.66797 22.666V9.33268C2.66797 5.65078 5.65274 2.66602 9.33464 2.66602ZM21.3346 15.1593C21.4992 16.269 21.3096 17.4023 20.793 18.398C20.2763 19.3938 19.4588 20.2012 18.4568 20.7056C17.4548 21.2099 16.3192 21.3855 15.2117 21.2073C14.1041 21.029 13.081 20.5061 12.2878 19.7129C11.4945 18.9197 10.9716 17.8965 10.7934 16.789C10.6152 15.6814 10.7907 14.5459 11.2951 13.5438C11.7994 12.5418 12.6069 11.7243 13.6026 11.2077C14.5983 10.691 15.7316 10.5015 16.8413 10.666C17.9732 10.8339 19.0211 11.3613 19.8302 12.1704C20.6394 12.9795 21.1668 14.0275 21.3346 15.1593Z" stroke="#001D3D" stroke-width="3" stroke-linecap="round" stroke-linejoin="round"/>
</svg>
