<svg width="32" height="32" viewBox="0 0 32 32" fill="none" xmlns="http://www.w3.org/2000/svg">
<path d="M21.3346 10.666C23.4564 10.666 25.4912 11.5089 26.9915 13.0092C28.4918 14.5095 29.3346 16.5443 29.3346 18.666V27.9993H24.0013V18.666C24.0013 17.9588 23.7204 17.2805 23.2203 16.7804C22.7202 16.2803 22.0419 15.9993 21.3346 15.9993C20.6274 15.9993 19.9491 16.2803 19.449 16.7804C18.9489 17.2805 18.668 17.9588 18.668 18.666V27.9993H13.3346V18.666C13.3346 16.5443 14.1775 14.5095 15.6778 13.0092C17.1781 11.5089 19.2129 10.666 21.3346 10.666Z" stroke="#001D3D" stroke-width="3" stroke-linecap="round" stroke-linejoin="round"/>
<path d="M8.0013 11.9993H2.66797V27.9993H8.0013V11.9993Z" stroke="#001D3D" stroke-width="3" stroke-linecap="round" stroke-linejoin="round"/>
<path d="M5.33464 7.99935C6.80739 7.99935 8.0013 6.80544 8.0013 5.33268C8.0013 3.85992 6.80739 2.66602 5.33464 2.66602C3.86188 2.66602 2.66797 3.85992 2.66797 5.33268C2.66797 6.80544 3.86188 7.99935 5.33464 7.99935Z" stroke="#001D3D" stroke-width="3" stroke-linecap="round" stroke-linejoin="round"/>
</svg>
