<svg width="30" height="20" viewBox="0 0 99 89" fill="none" xmlns="http://www.w3.org/2000/svg">
<path d="M26.72 17.6C28.7733 17.6 30.3867 18.2267 31.56 19.48C32.76 20.7067 33.36 22.3733 33.36 24.48V40H28.48V24.6C28.48 23.2133 28.24 22.24 27.76 21.68C27.3067 21.12 26.5067 20.84 25.36 20.84C23.6 20.84 22.04 21.6267 20.68 23.2C20.7067 23.3333 20.72 23.5467 20.72 23.84V40H15.84V24.2C15.84 23.0267 15.6133 22.1733 15.16 21.64C14.7067 21.1067 14 20.84 13.04 20.84C12.16 20.84 11.3067 21.0667 10.48 21.52C9.68 21.9467 8.85333 22.64 8 23.6V40H3.16V25.76C3.16 21.8933 3 19.5467 2.68 18.72C3.13333 18.4533 3.68 18.24 4.32 18.08C4.96 17.92 5.53333 17.84 6.04 17.84C6.65333 17.84 7.12 18.0533 7.44 18.48C7.76 18.9067 7.93333 19.5733 7.96 20.48C8.97333 19.4667 10 18.7333 11.04 18.28C12.1067 17.8267 13.28 17.6 14.56 17.6C15.8133 17.6 16.9067 17.8667 17.84 18.4C18.7733 18.9067 19.4933 19.64 20 20.6C21.6533 18.6 23.8933 17.6 26.72 17.6ZM58.0844 27.52C58.0844 27.9733 58.031 28.7333 57.9244 29.8H43.2044C43.3377 32.0933 43.871 33.8667 44.8044 35.12C45.7377 36.3733 47.0044 37 48.6044 37C49.6977 37 50.591 36.7867 51.2844 36.36C52.0044 35.9067 52.8177 35.04 53.7244 33.76C53.8844 33.52 54.1644 33.4 54.5644 33.4C55.311 33.4 56.3377 33.8667 57.6444 34.8C56.8977 36.6133 55.7377 38 54.1644 38.96C52.6177 39.92 50.7644 40.4 48.6044 40.4C45.3777 40.4 42.831 39.3867 40.9644 37.36C39.1244 35.3067 38.2044 32.5067 38.2044 28.96C38.2044 25.44 39.1377 22.6667 41.0044 20.64C42.871 18.6133 45.431 17.6 48.6844 17.6C51.671 17.6 53.9777 18.4667 55.6044 20.2C57.2577 21.9333 58.0844 24.3733 58.0844 27.52ZM53.1644 26.84C53.1644 22.8667 51.631 20.88 48.5644 20.88C47.0444 20.88 45.831 21.3867 44.9244 22.4C44.0444 23.3867 43.4977 24.8667 43.2844 26.84H53.1644ZM81.0141 27.52C81.0141 27.9733 80.9607 28.7333 80.8541 29.8H66.1341C66.2674 32.0933 66.8007 33.8667 67.7341 35.12C68.6674 36.3733 69.9341 37 71.5341 37C72.6274 37 73.5207 36.7867 74.2141 36.36C74.9341 35.9067 75.7474 35.04 76.6541 33.76C76.8141 33.52 77.0941 33.4 77.4941 33.4C78.2407 33.4 79.2674 33.8667 80.5741 34.8C79.8274 36.6133 78.6674 38 77.0941 38.96C75.5474 39.92 73.6941 40.4 71.5341 40.4C68.3074 40.4 65.7607 39.3867 63.8941 37.36C62.0541 35.3067 61.1341 32.5067 61.1341 28.96C61.1341 25.44 62.0674 22.6667 63.9341 20.64C65.8007 18.6133 68.3607 17.6 71.6141 17.6C74.6007 17.6 76.9074 18.4667 78.5341 20.2C80.1874 21.9333 81.0141 24.3733 81.0141 27.52ZM76.0941 26.84C76.0941 22.8667 74.5607 20.88 71.4941 20.88C69.9741 20.88 68.7607 21.3867 67.8541 22.4C66.9741 23.3867 66.4274 24.8667 66.2141 26.84H76.0941ZM96.8238 36.52C97.0638 36.6267 97.2638 36.8133 97.4238 37.08C97.5838 37.32 97.6638 37.6133 97.6638 37.96C97.6638 38.4933 97.4771 38.92 97.1038 39.24C96.6771 39.5867 96.0371 39.8667 95.1838 40.08C94.3571 40.2933 93.4371 40.4 92.4238 40.4C90.6104 40.4 89.1571 39.9067 88.0638 38.92C86.9971 37.9067 86.4638 36.56 86.4638 34.88V21.24H82.8238V18H86.4638V12H91.3038V18H95.9838V21.24H91.3038V34.36C91.3038 35.3733 91.4904 36.1067 91.8638 36.56C92.2371 36.9867 92.8371 37.2 93.6638 37.2C94.6771 37.2 95.7304 36.9733 96.8238 36.52Z" fill="#001D3D"/>
<path d="M23.28 77C22.9867 77 22.16 77.04 20.8 77.12C20.1067 77.1733 19.68 77.2 19.52 77.2C18.96 77.2 18.5067 77.0933 18.16 76.88C17.8133 76.6667 17.5067 76.3467 17.24 75.92L13.44 69.36C13.04 68.6667 12.5333 68.1733 11.92 67.88C11.3067 67.56 10.4267 67.44 9.28 67.52L7.96 67.6V77H3.12V45.36H7.96V64.04L9.08 64C9.93333 63.9467 10.5733 63.7867 11 63.52C11.4533 63.2267 11.8933 62.7067 12.32 61.96L16.44 55H21.92L16.64 63.16C16.2933 63.7467 15.9733 64.2133 15.68 64.56C15.4133 64.88 15.0533 65.16 14.6 65.4C15.32 65.5867 15.9067 65.8667 16.36 66.24C16.84 66.6133 17.2667 67.1067 17.64 67.72L23.28 77ZM27.07 55H31.95V77H27.07V55ZM29.27 50.96C27.4833 50.96 26.59 50.0667 26.59 48.28V47.76C26.59 45.9733 27.4833 45.08 29.27 45.08H29.75C31.5367 45.08 32.43 45.9733 32.43 47.76V48.28C32.43 50.0667 31.5367 50.96 29.75 50.96H29.27ZM56.5934 71.6C56.5934 73.04 56.6334 74.08 56.7134 74.72C56.7934 75.36 56.9668 75.9333 57.2334 76.44C55.9801 76.9467 54.6601 77.2 53.2734 77.2C52.7134 77.2 52.3134 76.8933 52.0734 76.28C51.8601 75.64 51.7534 74.52 51.7534 72.92V62.36C51.7534 60.8133 51.5001 59.72 50.9934 59.08C50.4868 58.4133 49.6334 58.08 48.4334 58.08C46.7001 58.08 44.8601 58.9333 42.9134 60.64V77H38.0734V62.28C38.0734 58.8133 37.9134 56.6 37.5934 55.64C39.1401 55.1067 40.4468 54.84 41.5134 54.84C42.0201 54.84 42.3801 55.0267 42.5934 55.4C42.8068 55.7733 42.9134 56.36 42.9134 57.16V57.64C44.2468 56.52 45.4334 55.7333 46.4734 55.28C47.5134 54.8267 48.6068 54.6 49.7534 54.6C52.0468 54.6 53.7534 55.2267 54.8734 56.48C56.0201 57.7067 56.5934 59.5867 56.5934 62.12V71.6ZM80.7675 69.76C80.7675 71.4933 80.8475 72.84 81.0075 73.8C81.1675 74.7333 81.4475 75.52 81.8475 76.16C80.5408 76.88 79.2742 77.24 78.0475 77.24C77.5142 77.24 77.0875 77.0267 76.7675 76.6C76.4475 76.1467 76.2208 75.4267 76.0875 74.44C75.3408 75.4533 74.4742 76.2 73.4875 76.68C72.5275 77.16 71.3942 77.4 70.0875 77.4C67.2342 77.4 65.0075 76.4133 63.4075 74.44C61.8075 72.44 61.0075 69.6533 61.0075 66.08C61.0075 63.7333 61.4075 61.7067 62.2075 60C63.0342 58.2667 64.2075 56.9333 65.7275 56C67.2475 55.0667 69.0342 54.6 71.0875 54.6C71.9408 54.6 72.8075 54.72 73.6875 54.96C74.5675 55.2 75.3142 55.52 75.9275 55.92V45.36H80.7675V69.76ZM70.8075 74.08C71.9008 74.08 72.8608 73.8267 73.6875 73.32C74.5142 72.7867 75.2608 71.96 75.9275 70.84V59.4C75.4208 58.9467 74.7675 58.5733 73.9675 58.28C73.1675 57.9867 72.3542 57.84 71.5275 57.84C69.7408 57.84 68.3675 58.56 67.4075 60C66.4475 61.4133 65.9675 63.44 65.9675 66.08C65.9675 71.4133 67.5808 74.08 70.8075 74.08ZM89.5538 77.16C87.7671 77.16 86.8738 76.2667 86.8738 74.48V73.96C86.8738 72.1733 87.7671 71.28 89.5538 71.28H90.0338C91.8204 71.28 92.7138 72.1733 92.7138 73.96V74.48C92.7138 76.2667 91.8204 77.16 90.0338 77.16H89.5538Z" fill="#001D3D"/>
</svg>
